<svg width="1440" height="1194" viewBox="0 0 1440 1194" fill="none" xmlns="http://www.w3.org/2000/svg">
<g style="mix-blend-mode:soft-light" opacity="0.7">
<path d="M-547.27 1H-608V60.622M-547.27 1V60.622M-547.27 1H-486.539M-547.27 60.622H-608M-547.27 60.622V120.244M-547.27 60.622H-486.539M-608 60.622V120.244M-547.27 120.244H-608M-547.27 120.244V179.866M-547.27 120.244H-486.539M-608 120.244V179.866M-547.27 179.866H-608M-547.27 179.866V239.488M-547.27 179.866H-486.539M-608 179.866V239.488M-547.27 239.488H-608M-547.27 239.488V299.11M-547.27 239.488H-486.539M-608 239.488V299.11M-547.27 299.11H-608M-547.27 299.11V358.732M-547.27 299.11H-486.539M-608 299.11V358.732M-547.27 358.732H-608M-547.27 358.732V418.354M-547.27 358.732H-486.539M-608 358.732V418.354M-547.27 418.354H-608M-547.27 418.354V477.976M-547.27 418.354H-486.539M-608 418.354V477.976M-547.27 477.976H-608M-547.27 477.976V537.598M-547.27 477.976H-486.539M-608 477.976V537.598M-547.27 537.598H-608M-547.27 537.598V597.22M-547.27 537.598H-486.539M-608 537.598V597.22M-547.27 597.22H-608M-547.27 597.22V656.842M-547.27 597.22H-486.539M-608 597.22V656.842M-547.27 656.842H-608M-547.27 656.842V716.464M-547.27 656.842H-486.539M-608 656.842V716.464M-547.27 716.464H-608M-547.27 716.464V776.086M-547.27 716.464H-486.539M-608 716.464V776.086M-547.27 776.086H-608M-547.27 776.086V835.708M-547.27 776.086H-486.539M-608 776.086V835.708M-547.27 835.708H-608M-547.27 835.708V895.33M-547.27 835.708H-486.539M-608 835.708V895.33M-547.27 895.33H-608M-547.27 895.33V954.952M-547.27 895.33H-486.539M-608 895.33V954.952M-547.27 954.952H-608M-547.27 954.952V1014.57M-547.27 954.952H-486.539M-608 954.952V1014.57M-547.27 1014.57H-608M-547.27 1014.57V1074.2M-547.27 1014.57H-486.539M-608 1014.57V1074.2M-547.27 1074.2H-608M-547.27 1074.2V1133.82M-547.27 1074.2H-486.539M-608 1074.2V1133.82M-547.27 1133.82H-608M-547.27 1133.82V1193.44M-547.27 1133.82H-486.539M-608 1133.82V1193.44H-547.27M-547.27 1193.44H-486.539M-486.539 1V60.622M-486.539 1H-425.809M-486.539 60.622V120.244M-486.539 60.622H-425.809M-486.539 120.244V179.866M-486.539 120.244H-425.809M-486.539 179.866V239.488M-486.539 179.866H-425.809M-486.539 239.488V299.11M-486.539 239.488H-425.809M-486.539 299.11V358.732M-486.539 299.11H-425.809M-486.539 358.732V418.354M-486.539 358.732H-425.809M-486.539 418.354V477.976M-486.539 418.354H-425.809M-486.539 477.976V537.598M-486.539 477.976H-425.809M-486.539 537.598V597.22M-486.539 537.598H-425.809M-486.539 597.22V656.842M-486.539 597.22H-425.809M-486.539 656.842V716.464M-486.539 656.842H-425.809M-486.539 716.464V776.086M-486.539 716.464H-425.809M-486.539 776.086V835.708M-486.539 776.086H-425.809M-486.539 835.708V895.33M-486.539 835.708H-425.809M-486.539 895.33V954.952M-486.539 895.33H-425.809M-486.539 954.952V1014.57M-486.539 954.952H-425.809M-486.539 1014.57V1074.2M-486.539 1014.57H-425.809M-486.539 1074.2V1133.82M-486.539 1074.2H-425.809M-486.539 1133.82V1193.44M-486.539 1133.82H-425.809M-486.539 1193.44H-425.809M-425.809 1V60.622M-425.809 1H-365.078M-425.809 60.622V120.244M-425.809 60.622H-365.078M-425.809 120.244V179.866M-425.809 120.244H-365.078M-425.809 179.866V239.488M-425.809 179.866H-365.078M-425.809 239.488V299.11M-425.809 239.488H-365.078M-425.809 299.11V358.732M-425.809 299.11H-365.078M-425.809 358.732V418.354M-425.809 358.732H-365.078M-425.809 418.354V477.976M-425.809 418.354H-365.078M-425.809 477.976V537.598M-425.809 477.976H-365.078M-425.809 537.598V597.22M-425.809 537.598H-365.078M-425.809 597.22V656.842M-425.809 597.22H-365.078M-425.809 656.842V716.464M-425.809 656.842H-365.078M-425.809 716.464V776.086M-425.809 716.464H-365.078M-425.809 776.086V835.708M-425.809 776.086H-365.078M-425.809 835.708V895.33M-425.809 835.708H-365.078M-425.809 895.33V954.952M-425.809 895.33H-365.078M-425.809 954.952V1014.57M-425.809 954.952H-365.078M-425.809 1014.57V1074.2M-425.809 1014.57H-365.078M-425.809 1074.2V1133.82M-425.809 1074.2H-365.078M-425.809 1133.82V1193.44M-425.809 1133.82H-365.078M-425.809 1193.44H-365.078M-365.078 1V60.622M-365.078 1H-304.348M-365.078 60.622V120.244M-365.078 60.622H-304.348M-365.078 120.244V179.866M-365.078 120.244H-304.348M-365.078 179.866V239.488M-365.078 179.866H-304.348M-365.078 239.488V299.11M-365.078 239.488H-304.348M-365.078 299.11V358.732M-365.078 299.11H-304.348M-365.078 358.732V418.354M-365.078 358.732H-304.348M-365.078 418.354V477.976M-365.078 418.354H-304.348M-365.078 477.976V537.598M-365.078 477.976H-304.348M-365.078 537.598V597.22M-365.078 537.598H-304.348M-365.078 597.22V656.842M-365.078 597.22H-304.348M-365.078 656.842V716.464M-365.078 656.842H-304.348M-365.078 716.464V776.086M-365.078 716.464H-304.348M-365.078 776.086V835.708M-365.078 776.086H-304.348M-365.078 835.708V895.33M-365.078 835.708H-304.348M-365.078 895.33V954.952M-365.078 895.33H-304.348M-365.078 954.952V1014.57M-365.078 954.952H-304.348M-365.078 1014.57V1074.2M-365.078 1014.57H-304.348M-365.078 1074.2V1133.82M-365.078 1074.2H-304.348M-365.078 1133.82V1193.44M-365.078 1133.82H-304.348M-365.078 1193.44H-304.348M-304.348 1V60.622M-304.348 1H-243.617M-304.348 60.622V120.244M-304.348 60.622H-243.617M-304.348 120.244V179.866M-304.348 120.244H-243.617M-304.348 179.866V239.488M-304.348 179.866H-243.617M-304.348 239.488V299.11M-304.348 239.488H-243.617M-304.348 299.11V358.732M-304.348 299.11H-243.617M-304.348 358.732V418.354M-304.348 358.732H-243.617M-304.348 418.354V477.976M-304.348 418.354H-243.617M-304.348 477.976V537.598M-304.348 477.976H-243.617M-304.348 537.598V597.22M-304.348 537.598H-243.617M-304.348 597.22V656.842M-304.348 597.22H-243.617M-304.348 656.842V716.464M-304.348 656.842H-243.617M-304.348 716.464V776.086M-304.348 716.464H-243.617M-304.348 776.086V835.708M-304.348 776.086H-243.617M-304.348 835.708V895.33M-304.348 835.708H-243.617M-304.348 895.33V954.952M-304.348 895.33H-243.617M-304.348 954.952V1014.57M-304.348 954.952H-243.617M-304.348 1014.57V1074.2M-304.348 1014.57H-243.617M-304.348 1074.2V1133.82M-304.348 1074.2H-243.617M-304.348 1133.82V1193.44M-304.348 1133.82H-243.617M-304.348 1193.44H-243.617M-243.617 1V60.622M-243.617 1H-182.887M-243.617 60.622V120.244M-243.617 60.622H-182.887M-243.617 120.244V179.866M-243.617 120.244H-182.887M-243.617 179.866V239.488M-243.617 179.866H-182.887M-243.617 239.488V299.11M-243.617 239.488H-182.887M-243.617 299.11V358.732M-243.617 299.11H-182.887M-243.617 358.732V418.354M-243.617 358.732H-182.887M-243.617 418.354V477.976M-243.617 418.354H-182.887M-243.617 477.976V537.598M-243.617 477.976H-182.887M-243.617 537.598V597.22M-243.617 537.598H-182.887M-243.617 597.22V656.842M-243.617 597.22H-182.887M-243.617 656.842V716.464M-243.617 656.842H-182.887M-243.617 716.464V776.086M-243.617 716.464H-182.887M-243.617 776.086V835.708M-243.617 776.086H-182.887M-243.617 835.708V895.33M-243.617 835.708H-182.887M-243.617 895.33V954.952M-243.617 895.33H-182.887M-243.617 954.952V1014.57M-243.617 954.952H-182.887M-243.617 1014.57V1074.2M-243.617 1014.57H-182.887M-243.617 1074.2V1133.82M-243.617 1074.2H-182.887M-243.617 1133.82V1193.44M-243.617 1133.82H-182.887M-243.617 1193.44H-182.887M-182.887 1V60.622M-182.887 1H-122.156M-182.887 60.622V120.244M-182.887 60.622H-122.156M-182.887 120.244V179.866M-182.887 120.244H-122.156M-182.887 179.866V239.488M-182.887 179.866H-122.156M-182.887 239.488V299.11M-182.887 239.488H-122.156M-182.887 299.11V358.732M-182.887 299.11H-122.156M-182.887 358.732V418.354M-182.887 358.732H-122.156M-182.887 418.354V477.976M-182.887 418.354H-122.156M-182.887 477.976V537.598M-182.887 477.976H-122.156M-182.887 537.598V597.22M-182.887 537.598H-122.156M-182.887 597.22V656.842M-182.887 597.22H-122.156M-182.887 656.842V716.464M-182.887 656.842H-122.156M-182.887 716.464V776.086M-182.887 716.464H-122.156M-182.887 776.086V835.708M-182.887 776.086H-122.156M-182.887 835.708V895.33M-182.887 835.708H-122.156M-182.887 895.33V954.952M-182.887 895.33H-122.156M-182.887 954.952V1014.57M-182.887 954.952H-122.156M-182.887 1014.57V1074.2M-182.887 1014.57H-122.156M-182.887 1074.2V1133.82M-182.887 1074.2H-122.156M-182.887 1133.82V1193.44M-182.887 1133.82H-122.156M-182.887 1193.44H-122.156M-122.156 1V60.622M-122.156 1H-61.4257M-122.156 60.622V120.244M-122.156 60.622H-61.4257M-122.156 120.244V179.866M-122.156 120.244H-61.4257M-122.156 179.866V239.488M-122.156 179.866H-61.4257M-122.156 239.488V299.11M-122.156 239.488H-61.4257M-122.156 299.11V358.732M-122.156 299.11H-61.4257M-122.156 358.732V418.354M-122.156 358.732H-61.4257M-122.156 418.354V477.976M-122.156 418.354H-61.4257M-122.156 477.976V537.598M-122.156 477.976H-61.4257M-122.156 537.598V597.22M-122.156 537.598H-61.4257M-122.156 597.22V656.842M-122.156 597.22H-61.4257M-122.156 656.842V716.464M-122.156 656.842H-61.4257M-122.156 716.464V776.086M-122.156 716.464H-61.4257M-122.156 776.086V835.708M-122.156 776.086H-61.4257M-122.156 835.708V895.33M-122.156 835.708H-61.4257M-122.156 895.33V954.952M-122.156 895.33H-61.4257M-122.156 954.952V1014.57M-122.156 954.952H-61.4257M-122.156 1014.57V1074.2M-122.156 1014.57H-61.4257M-122.156 1074.2V1133.82M-122.156 1074.2H-61.4257M-122.156 1133.82V1193.44M-122.156 1133.82H-61.4257M-122.156 1193.44H-61.4257M-61.4257 1V60.622M-61.4257 1H-0.695189M-61.4257 60.622V120.244M-61.4257 60.622H-0.695189M-61.4257 120.244V179.866M-61.4257 120.244H-0.695189M-61.4257 179.866V239.488M-61.4257 179.866H-0.695189M-61.4257 239.488V299.11M-61.4257 239.488H-0.695189M-61.4257 299.11V358.732M-61.4257 299.11H-0.695189M-61.4257 358.732V418.354M-61.4257 358.732H-0.695189M-61.4257 418.354V477.976M-61.4257 418.354H-0.695189M-61.4257 477.976V537.598M-61.4257 477.976H-0.695189M-61.4257 537.598V597.22M-61.4257 537.598H-0.695189M-61.4257 597.22V656.842M-61.4257 597.22H-0.695189M-61.4257 656.842V716.464M-61.4257 656.842H-0.695189M-61.4257 716.464V776.086M-61.4257 716.464H-0.695189M-61.4257 776.086V835.708M-61.4257 776.086H-0.695189M-61.4257 835.708V895.33M-61.4257 835.708H-0.695189M-61.4257 895.33V954.952M-61.4257 895.33H-0.695189M-61.4257 954.952V1014.57M-61.4257 954.952H-0.695189M-61.4257 1014.57V1074.2M-61.4257 1014.57H-0.695189M-61.4257 1074.2V1133.82M-61.4257 1074.2H-0.695189M-61.4257 1133.82V1193.44M-61.4257 1133.82H-0.695189M-61.4257 1193.44H-0.695189M-0.695189 1V60.622M-0.695189 1H60.0353M-0.695189 60.622V120.244M-0.695189 60.622H60.0353M-0.695189 120.244V179.866M-0.695189 120.244H60.0353M-0.695189 179.866V239.488M-0.695189 179.866H60.0353M-0.695189 239.488V299.11M-0.695189 239.488H60.0353M-0.695189 299.11V358.732M-0.695189 299.11H60.0353M-0.695189 358.732V418.354M-0.695189 358.732H60.0353M-0.695189 418.354V477.976M-0.695189 418.354H60.0353M-0.695189 477.976V537.598M-0.695189 477.976H60.0353M-0.695189 537.598V597.22M-0.695189 537.598H60.0353M-0.695189 597.22V656.842M-0.695189 597.22H60.0353M-0.695189 656.842V716.464M-0.695189 656.842H60.0353M-0.695189 716.464V776.086M-0.695189 716.464H60.0353M-0.695189 776.086V835.708M-0.695189 776.086H60.0353M-0.695189 835.708V895.33M-0.695189 835.708H60.0353M-0.695189 895.33V954.952M-0.695189 895.33H60.0353M-0.695189 954.952V1014.57M-0.695189 954.952H60.0353M-0.695189 1014.57V1074.2M-0.695189 1014.57H60.0353M-0.695189 1074.2V1133.82M-0.695189 1074.2H60.0353M-0.695189 1133.82V1193.44M-0.695189 1133.82H60.0353M-0.695189 1193.44H60.0353M60.0353 1V60.622M60.0353 1H120.766M60.0353 60.622V120.244M60.0353 60.622H120.766M60.0353 120.244V179.866M60.0353 120.244H120.766M60.0353 179.866V239.488M60.0353 179.866H120.766M60.0353 239.488V299.11M60.0353 239.488H120.766M60.0353 299.11V358.732M60.0353 299.11H120.766M60.0353 358.732V418.354M60.0353 358.732H120.766M60.0353 418.354V477.976M60.0353 418.354H120.766M60.0353 477.976V537.598M60.0353 477.976H120.766M60.0353 537.598V597.22M60.0353 537.598H120.766M60.0353 597.22V656.842M60.0353 597.22H120.766M60.0353 656.842V716.464M60.0353 656.842H120.766M60.0353 716.464V776.086M60.0353 716.464H120.766M60.0353 776.086V835.708M60.0353 776.086H120.766M60.0353 835.708V895.33M60.0353 835.708H120.766M60.0353 895.33V954.952M60.0353 895.33H120.766M60.0353 954.952V1014.57M60.0353 954.952H120.766M60.0353 1014.57V1074.2M60.0353 1014.57H120.766M60.0353 1074.2V1133.82M60.0353 1074.2H120.766M60.0353 1133.82V1193.44M60.0353 1133.82H120.766M60.0353 1193.44H120.766M120.766 1V60.622M120.766 1H181.496M120.766 60.622V120.244M120.766 60.622H181.496M120.766 120.244V179.866M120.766 120.244H181.496M120.766 179.866V239.488M120.766 179.866H181.496M120.766 239.488V299.11M120.766 239.488H181.496M120.766 299.11V358.732M120.766 299.11H181.496M120.766 358.732V418.354M120.766 358.732H181.496M120.766 418.354V477.976M120.766 418.354H181.496M120.766 477.976V537.598M120.766 477.976H181.496M120.766 537.598V597.22M120.766 537.598H181.496M120.766 597.22V656.842M120.766 597.22H181.496M120.766 656.842V716.464M120.766 656.842H181.496M120.766 716.464V776.086M120.766 716.464H181.496M120.766 776.086V835.708M120.766 776.086H181.496M120.766 835.708V895.33M120.766 835.708H181.496M120.766 895.33V954.952M120.766 895.33H181.496M120.766 954.952V1014.57M120.766 954.952H181.496M120.766 1014.57V1074.2M120.766 1014.57H181.496M120.766 1074.2V1133.82M120.766 1074.2H181.496M120.766 1133.82V1193.44M120.766 1133.82H181.496M120.766 1193.44H181.496M181.496 1V60.622M181.496 1H242.227M181.496 60.622V120.244M181.496 60.622H242.227M181.496 120.244V179.866M181.496 120.244H242.227M181.496 179.866V239.488M181.496 179.866H242.227M181.496 239.488V299.11M181.496 239.488H242.227M181.496 299.11V358.732M181.496 299.11H242.227M181.496 358.732V418.354M181.496 358.732H242.227M181.496 418.354V477.976M181.496 418.354H242.227M181.496 477.976V537.598M181.496 477.976H242.227M181.496 537.598V597.22M181.496 537.598H242.227M181.496 597.22V656.842M181.496 597.22H242.227M181.496 656.842V716.464M181.496 656.842H242.227M181.496 716.464V776.086M181.496 716.464H242.227M181.496 776.086V835.708M181.496 776.086H242.227M181.496 835.708V895.33M181.496 835.708H242.227M181.496 895.33V954.952M181.496 895.33H242.227M181.496 954.952V1014.57M181.496 954.952H242.227M181.496 1014.57V1074.2M181.496 1014.57H242.227M181.496 1074.2V1133.82M181.496 1074.2H242.227M181.496 1133.82V1193.44M181.496 1133.82H242.227M181.496 1193.44H242.227M242.227 1V60.622M242.227 1H302.957M242.227 60.622V120.244M242.227 60.622H302.957M242.227 120.244V179.866M242.227 120.244H302.957M242.227 179.866V239.488M242.227 179.866H302.957M242.227 239.488V299.11M242.227 239.488H302.957M242.227 299.11V358.732M242.227 299.11H302.957M242.227 358.732V418.354M242.227 358.732H302.957M242.227 418.354V477.976M242.227 418.354H302.957M242.227 477.976V537.598M242.227 477.976H302.957M242.227 537.598V597.22M242.227 537.598H302.957M242.227 597.22V656.842M242.227 597.22H302.957M242.227 656.842V716.464M242.227 656.842H302.957M242.227 716.464V776.086M242.227 716.464H302.957M242.227 776.086V835.708M242.227 776.086H302.957M242.227 835.708V895.33M242.227 835.708H302.957M242.227 895.33V954.952M242.227 895.33H302.957M242.227 954.952V1014.57M242.227 954.952H302.957M242.227 1014.57V1074.2M242.227 1014.57H302.957M242.227 1074.2V1133.82M242.227 1074.2H302.957M242.227 1133.82V1193.44M242.227 1133.82H302.957M242.227 1193.44H302.957M302.957 1V60.622M302.957 1H363.688M302.957 60.622V120.244M302.957 60.622H363.688M302.957 120.244V179.866M302.957 120.244H363.688M302.957 179.866V239.488M302.957 179.866H363.688M302.957 239.488V299.11M302.957 239.488H363.688M302.957 299.11V358.732M302.957 299.11H363.688M302.957 358.732V418.354M302.957 358.732H363.688M302.957 418.354V477.976M302.957 418.354H363.688M302.957 477.976V537.598M302.957 477.976H363.688M302.957 537.598V597.22M302.957 537.598H363.688M302.957 597.22V656.842M302.957 597.22H363.688M302.957 656.842V716.464M302.957 656.842H363.688M302.957 716.464V776.086M302.957 716.464H363.688M302.957 776.086V835.708M302.957 776.086H363.688M302.957 835.708V895.33M302.957 835.708H363.688M302.957 895.33V954.952M302.957 895.33H363.688M302.957 954.952V1014.57M302.957 954.952H363.688M302.957 1014.57V1074.2M302.957 1014.57H363.688M302.957 1074.2V1133.82M302.957 1074.2H363.688M302.957 1133.82V1193.44M302.957 1133.82H363.688M302.957 1193.44H363.688M363.688 1V60.622M363.688 1H424.418M363.688 60.622V120.244M363.688 60.622H424.418M363.688 120.244V179.866M363.688 120.244H424.418M363.688 179.866V239.488M363.688 179.866H424.418M363.688 239.488V299.11M363.688 239.488H424.418M363.688 299.11V358.732M363.688 299.11H424.418M363.688 358.732V418.354M363.688 358.732H424.418M363.688 418.354V477.976M363.688 418.354H424.418M363.688 477.976V537.598M363.688 477.976H424.418M363.688 537.598V597.22M363.688 537.598H424.418M363.688 597.22V656.842M363.688 597.22H424.418M363.688 656.842V716.464M363.688 656.842H424.418M363.688 716.464V776.086M363.688 716.464H424.418M363.688 776.086V835.708M363.688 776.086H424.418M363.688 835.708V895.33M363.688 835.708H424.418M363.688 895.33V954.952M363.688 895.33H424.418M363.688 954.952V1014.57M363.688 954.952H424.418M363.688 1014.57V1074.2M363.688 1014.57H424.418M363.688 1074.2V1133.82M363.688 1074.2H424.418M363.688 1133.82V1193.44M363.688 1133.82H424.418M363.688 1193.44H424.418M424.418 1V60.622M424.418 1H485.149M424.418 60.622V120.244M424.418 60.622H485.149M424.418 120.244V179.866M424.418 120.244H485.149M424.418 179.866V239.488M424.418 179.866H485.149M424.418 239.488V299.11M424.418 239.488H485.149M424.418 299.11V358.732M424.418 299.11H485.149M424.418 358.732V418.354M424.418 358.732H485.149M424.418 418.354V477.976M424.418 418.354H485.149M424.418 477.976V537.598M424.418 477.976H485.149M424.418 537.598V597.22M424.418 537.598H485.149M424.418 597.22V656.842M424.418 597.22H485.149M424.418 656.842V716.464M424.418 656.842H485.149M424.418 716.464V776.086M424.418 716.464H485.149M424.418 776.086V835.708M424.418 776.086H485.149M424.418 835.708V895.33M424.418 835.708H485.149M424.418 895.33V954.952M424.418 895.33H485.149M424.418 954.952V1014.57M424.418 954.952H485.149M424.418 1014.57V1074.2M424.418 1014.57H485.149M424.418 1074.2V1133.82M424.418 1074.2H485.149M424.418 1133.82V1193.44M424.418 1133.82H485.149M424.418 1193.44H485.149M485.149 1V60.622M485.149 1H545.879M485.149 60.622V120.244M485.149 60.622H545.879M485.149 120.244V179.866M485.149 120.244H545.879M485.149 179.866V239.488M485.149 179.866H545.879M485.149 239.488V299.11M485.149 239.488H545.879M485.149 299.11V358.732M485.149 299.11H545.879M485.149 358.732V418.354M485.149 358.732H545.879M485.149 418.354V477.976M485.149 418.354H545.879M485.149 477.976V537.598M485.149 477.976H545.879M485.149 537.598V597.22M485.149 537.598H545.879M485.149 597.22V656.842M485.149 597.22H545.879M485.149 656.842V716.464M485.149 656.842H545.879M485.149 716.464V776.086M485.149 716.464H545.879M485.149 776.086V835.708M485.149 776.086H545.879M485.149 835.708V895.33M485.149 835.708H545.879M485.149 895.33V954.952M485.149 895.33H545.879M485.149 954.952V1014.57M485.149 954.952H545.879M485.149 1014.57V1074.2M485.149 1014.57H545.879M485.149 1074.2V1133.82M485.149 1074.2H545.879M485.149 1133.82V1193.44M485.149 1133.82H545.879M485.149 1193.44H545.879M545.879 1V60.622M545.879 1H606.61M545.879 60.622V120.244M545.879 60.622H606.61M545.879 120.244V179.866M545.879 120.244H606.61M545.879 179.866V239.488M545.879 179.866H606.61M545.879 239.488V299.11M545.879 239.488H606.61M545.879 299.11V358.732M545.879 299.11H606.61M545.879 358.732V418.354M545.879 358.732H606.61M545.879 418.354V477.976M545.879 418.354H606.61M545.879 477.976V537.598M545.879 477.976H606.61M545.879 537.598V597.22M545.879 537.598H606.61M545.879 597.22V656.842M545.879 597.22H606.61M545.879 656.842V716.464M545.879 656.842H606.61M545.879 716.464V776.086M545.879 716.464H606.61M545.879 776.086V835.708M545.879 776.086H606.61M545.879 835.708V895.33M545.879 835.708H606.61M545.879 895.33V954.952M545.879 895.33H606.61M545.879 954.952V1014.57M545.879 954.952H606.61M545.879 1014.57V1074.2M545.879 1014.57H606.61M545.879 1074.2V1133.82M545.879 1074.2H606.61M545.879 1133.82V1193.44M545.879 1133.82H606.61M545.879 1193.44H606.61M606.61 1V60.622M606.61 1H667.34M606.61 60.622V120.244M606.61 60.622H667.34M606.61 120.244V179.866M606.61 120.244H667.34M606.61 179.866V239.488M606.61 179.866H667.34M606.61 239.488V299.11M606.61 239.488H667.34M606.61 299.11V358.732M606.61 299.11H667.34M606.61 358.732V418.354M606.61 358.732H667.34M606.61 418.354V477.976M606.61 418.354H667.34M606.61 477.976V537.598M606.61 477.976H667.34M606.61 537.598V597.22M606.61 537.598H667.34M606.61 597.22V656.842M606.61 597.22H667.34M606.61 656.842V716.464M606.61 656.842H667.34M606.61 716.464V776.086M606.61 716.464H667.34M606.61 776.086V835.708M606.61 776.086H667.34M606.61 835.708V895.33M606.61 835.708H667.34M606.61 895.33V954.952M606.61 895.33H667.34M606.61 954.952V1014.57M606.61 954.952H667.34M606.61 1014.57V1074.2M606.61 1014.57H667.34M606.61 1074.2V1133.82M606.61 1074.2H667.34M606.61 1133.82V1193.44M606.61 1133.82H667.34M606.61 1193.44H667.34M667.34 1V60.622M667.34 1H728.071M667.34 60.622V120.244M667.34 60.622H728.071M667.34 120.244V179.866M667.34 120.244H728.071M667.34 179.866V239.488M667.34 179.866H728.071M667.34 239.488V299.11M667.34 239.488H728.071M667.34 299.11V358.732M667.34 299.11H728.071M667.34 358.732V418.354M667.34 358.732H728.071M667.34 418.354V477.976M667.34 418.354H728.071M667.34 477.976V537.598M667.34 477.976H728.071M667.34 537.598V597.22M667.34 537.598H728.071M667.34 597.22V656.842M667.34 597.22H728.071M667.34 656.842V716.464M667.34 656.842H728.071M667.34 716.464V776.086M667.34 716.464H728.071M667.34 776.086V835.708M667.34 776.086H728.071M667.34 835.708V895.33M667.34 835.708H728.071M667.34 895.33V954.952M667.34 895.33H728.071M667.34 954.952V1014.57M667.34 954.952H728.071M667.34 1014.57V1074.2M667.34 1014.57H728.071M667.34 1074.2V1133.82M667.34 1074.2H728.071M667.34 1133.82V1193.44M667.34 1133.82H728.071M667.34 1193.44H728.071M728.071 1V60.622M728.071 1H788.801M728.071 60.622V120.244M728.071 60.622H788.801M728.071 120.244V179.866M728.071 120.244H788.801M728.071 179.866V239.488M728.071 179.866H788.801M728.071 239.488V299.11M728.071 239.488H788.801M728.071 299.11V358.732M728.071 299.11H788.801M728.071 358.732V418.354M728.071 358.732H788.801M728.071 418.354V477.976M728.071 418.354H788.801M728.071 477.976V537.598M728.071 477.976H788.801M728.071 537.598V597.22M728.071 537.598H788.801M728.071 597.22V656.842M728.071 597.22H788.801M728.071 656.842V716.464M728.071 656.842H788.801M728.071 716.464V776.086M728.071 716.464H788.801M728.071 776.086V835.708M728.071 776.086H788.801M728.071 835.708V895.33M728.071 835.708H788.801M728.071 895.33V954.952M728.071 895.33H788.801M728.071 954.952V1014.57M728.071 954.952H788.801M728.071 1014.57V1074.2M728.071 1014.57H788.801M728.071 1074.2V1133.82M728.071 1074.2H788.801M728.071 1133.82V1193.44M728.071 1133.82H788.801M728.071 1193.44H788.801M788.801 1V60.622M788.801 1H849.532M788.801 60.622V120.244M788.801 60.622H849.532M788.801 120.244V179.866M788.801 120.244H849.532M788.801 179.866V239.488M788.801 179.866H849.532M788.801 239.488V299.11M788.801 239.488H849.532M788.801 299.11V358.732M788.801 299.11H849.532M788.801 358.732V418.354M788.801 358.732H849.532M788.801 418.354V477.976M788.801 418.354H849.532M788.801 477.976V537.598M788.801 477.976H849.532M788.801 537.598V597.22M788.801 537.598H849.532M788.801 597.22V656.842M788.801 597.22H849.532M788.801 656.842V716.464M788.801 656.842H849.532M788.801 716.464V776.086M788.801 716.464H849.532M788.801 776.086V835.708M788.801 776.086H849.532M788.801 835.708V895.33M788.801 835.708H849.532M788.801 895.33V954.952M788.801 895.33H849.532M788.801 954.952V1014.57M788.801 954.952H849.532M788.801 1014.57V1074.2M788.801 1014.57H849.532M788.801 1074.2V1133.82M788.801 1074.2H849.532M788.801 1133.82V1193.44M788.801 1133.82H849.532M788.801 1193.44H849.532M849.532 1V60.622M849.532 1H910.262M849.532 60.622V120.244M849.532 60.622H910.262M849.532 120.244V179.866M849.532 120.244H910.262M849.532 179.866V239.488M849.532 179.866H910.262M849.532 239.488V299.11M849.532 239.488H910.262M849.532 299.11V358.732M849.532 299.11H910.262M849.532 358.732V418.354M849.532 358.732H910.262M849.532 418.354V477.976M849.532 418.354H910.262M849.532 477.976V537.598M849.532 477.976H910.262M849.532 537.598V597.22M849.532 537.598H910.262M849.532 597.22V656.842M849.532 597.22H910.262M849.532 656.842V716.464M849.532 656.842H910.262M849.532 716.464V776.086M849.532 716.464H910.262M849.532 776.086V835.708M849.532 776.086H910.262M849.532 835.708V895.33M849.532 835.708H910.262M849.532 895.33V954.952M849.532 895.33H910.262M849.532 954.952V1014.57M849.532 954.952H910.262M849.532 1014.57V1074.2M849.532 1014.57H910.262M849.532 1074.2V1133.82M849.532 1074.2H910.262M849.532 1133.82V1193.44M849.532 1133.82H910.262M849.532 1193.44H910.262M910.262 1V60.622M910.262 1H970.992M910.262 60.622V120.244M910.262 60.622H970.992M910.262 120.244V179.866M910.262 120.244H970.992M910.262 179.866V239.488M910.262 179.866H970.992M910.262 239.488V299.11M910.262 239.488H970.992M910.262 299.11V358.732M910.262 299.11H970.992M910.262 358.732V418.354M910.262 358.732H970.992M910.262 418.354V477.976M910.262 418.354H970.992M910.262 477.976V537.598M910.262 477.976H970.992M910.262 537.598V597.22M910.262 537.598H970.992M910.262 597.22V656.842M910.262 597.22H970.992M910.262 656.842V716.464M910.262 656.842H970.992M910.262 716.464V776.086M910.262 716.464H970.992M910.262 776.086V835.708M910.262 776.086H970.992M910.262 835.708V895.33M910.262 835.708H970.992M910.262 895.33V954.952M910.262 895.33H970.992M910.262 954.952V1014.57M910.262 954.952H970.992M910.262 1014.57V1074.2M910.262 1014.57H970.992M910.262 1074.2V1133.82M910.262 1074.2H970.992M910.262 1133.82V1193.44M910.262 1133.82H970.992M910.262 1193.44H970.992M970.992 1V60.622M970.992 1H1031.72M970.992 60.622V120.244M970.992 60.622H1031.72M970.992 120.244V179.866M970.992 120.244H1031.72M970.992 179.866V239.488M970.992 179.866H1031.72M970.992 239.488V299.11M970.992 239.488H1031.72M970.992 299.11V358.732M970.992 299.11H1031.72M970.992 358.732V418.354M970.992 358.732H1031.72M970.992 418.354V477.976M970.992 418.354H1031.72M970.992 477.976V537.598M970.992 477.976H1031.72M970.992 537.598V597.22M970.992 537.598H1031.72M970.992 597.22V656.842M970.992 597.22H1031.72M970.992 656.842V716.464M970.992 656.842H1031.72M970.992 716.464V776.086M970.992 716.464H1031.72M970.992 776.086V835.708M970.992 776.086H1031.72M970.992 835.708V895.33M970.992 835.708H1031.72M970.992 895.33V954.952M970.992 895.33H1031.72M970.992 954.952V1014.57M970.992 954.952H1031.72M970.992 1014.57V1074.2M970.992 1014.57H1031.72M970.992 1074.2V1133.82M970.992 1074.2H1031.72M970.992 1133.82V1193.44M970.992 1133.82H1031.72M970.992 1193.44H1031.72M1031.72 1V60.622M1031.72 1H1092.45M1031.72 60.622V120.244M1031.72 60.622H1092.45M1031.72 120.244V179.866M1031.72 120.244H1092.45M1031.72 179.866V239.488M1031.72 179.866H1092.45M1031.72 239.488V299.11M1031.72 239.488H1092.45M1031.72 299.11V358.732M1031.72 299.11H1092.45M1031.72 358.732V418.354M1031.72 358.732H1092.45M1031.72 418.354V477.976M1031.72 418.354H1092.45M1031.72 477.976V537.598M1031.72 477.976H1092.45M1031.72 537.598V597.22M1031.72 537.598H1092.45M1031.72 597.22V656.842M1031.72 597.22H1092.45M1031.72 656.842V716.464M1031.72 656.842H1092.45M1031.72 716.464V776.086M1031.72 716.464H1092.45M1031.72 776.086V835.708M1031.72 776.086H1092.45M1031.72 835.708V895.33M1031.72 835.708H1092.45M1031.72 895.33V954.952M1031.72 895.33H1092.45M1031.72 954.952V1014.57M1031.72 954.952H1092.45M1031.72 1014.57V1074.2M1031.72 1014.57H1092.45M1031.72 1074.2V1133.82M1031.72 1074.2H1092.45M1031.72 1133.82V1193.44M1031.72 1133.82H1092.45M1031.72 1193.44H1092.45M1092.45 1V60.622M1092.45 1H1153.18M1092.45 60.622V120.244M1092.45 60.622H1153.18M1092.45 120.244V179.866M1092.45 120.244H1153.18M1092.45 179.866V239.488M1092.45 179.866H1153.18M1092.45 239.488V299.11M1092.45 239.488H1153.18M1092.45 299.11V358.732M1092.45 299.11H1153.18M1092.45 358.732V418.354M1092.45 358.732H1153.18M1092.45 418.354V477.976M1092.45 418.354H1153.18M1092.45 477.976V537.598M1092.45 477.976H1153.18M1092.45 537.598V597.22M1092.45 537.598H1153.18M1092.45 597.22V656.842M1092.45 597.22H1153.18M1092.45 656.842V716.464M1092.45 656.842H1153.18M1092.45 716.464V776.086M1092.45 716.464H1153.18M1092.45 776.086V835.708M1092.45 776.086H1153.18M1092.45 835.708V895.33M1092.45 835.708H1153.18M1092.45 895.33V954.952M1092.45 895.33H1153.18M1092.45 954.952V1014.57M1092.45 954.952H1153.18M1092.45 1014.57V1074.2M1092.45 1014.57H1153.18M1092.45 1074.2V1133.82M1092.45 1074.2H1153.18M1092.45 1133.82V1193.44M1092.45 1133.82H1153.18M1092.45 1193.44H1153.18M1153.18 1V60.622M1153.18 1H1213.91M1153.18 60.622V120.244M1153.18 60.622H1213.91M1153.18 120.244V179.866M1153.18 120.244H1213.91M1153.18 179.866V239.488M1153.18 179.866H1213.91M1153.18 239.488V299.11M1153.18 239.488H1213.91M1153.18 299.11V358.732M1153.18 299.11H1213.91M1153.18 358.732V418.354M1153.18 358.732H1213.91M1153.18 418.354V477.976M1153.18 418.354H1213.91M1153.18 477.976V537.598M1153.18 477.976H1213.91M1153.18 537.598V597.22M1153.18 537.598H1213.91M1153.18 597.22V656.842M1153.18 597.22H1213.91M1153.18 656.842V716.464M1153.18 656.842H1213.91M1153.18 716.464V776.086M1153.18 716.464H1213.91M1153.18 776.086V835.708M1153.18 776.086H1213.91M1153.18 835.708V895.33M1153.18 835.708H1213.91M1153.18 895.33V954.952M1153.18 895.33H1213.91M1153.18 954.952V1014.57M1153.18 954.952H1213.91M1153.18 1014.57V1074.2M1153.18 1014.57H1213.91M1153.18 1074.2V1133.82M1153.18 1074.2H1213.91M1153.18 1133.82V1193.44M1153.18 1133.82H1213.91M1153.18 1193.44H1213.91M1213.91 1V60.622M1213.91 1H1274.64M1213.91 60.622V120.244M1213.91 60.622H1274.64M1213.91 120.244V179.866M1213.91 120.244H1274.64M1213.91 179.866V239.488M1213.91 179.866H1274.64M1213.91 239.488V299.11M1213.91 239.488H1274.64M1213.91 299.11V358.732M1213.91 299.11H1274.64M1213.91 358.732V418.354M1213.91 358.732H1274.64M1213.91 418.354V477.976M1213.91 418.354H1274.64M1213.91 477.976V537.598M1213.91 477.976H1274.64M1213.91 537.598V597.22M1213.91 537.598H1274.64M1213.91 597.22V656.842M1213.91 597.22H1274.64M1213.91 656.842V716.464M1213.91 656.842H1274.64M1213.91 716.464V776.086M1213.91 716.464H1274.64M1213.91 776.086V835.708M1213.91 776.086H1274.64M1213.91 835.708V895.33M1213.91 835.708H1274.64M1213.91 895.33V954.952M1213.91 895.33H1274.64M1213.91 954.952V1014.57M1213.91 954.952H1274.64M1213.91 1014.57V1074.2M1213.91 1014.57H1274.64M1213.91 1074.2V1133.82M1213.91 1074.2H1274.64M1213.91 1133.82V1193.44M1213.91 1133.82H1274.64M1213.91 1193.44H1274.64M1274.64 1V60.622M1274.64 1H1335.38M1274.64 60.622V120.244M1274.64 60.622H1335.38M1274.64 120.244V179.866M1274.64 120.244H1335.38M1274.64 179.866V239.488M1274.64 179.866H1335.38M1274.64 239.488V299.11M1274.64 239.488H1335.38M1274.64 299.11V358.732M1274.64 299.11H1335.38M1274.64 358.732V418.354M1274.64 358.732H1335.38M1274.64 418.354V477.976M1274.64 418.354H1335.38M1274.64 477.976V537.598M1274.64 477.976H1335.38M1274.64 537.598V597.22M1274.64 537.598H1335.38M1274.64 597.22V656.842M1274.64 597.22H1335.38M1274.64 656.842V716.464M1274.64 656.842H1335.38M1274.64 716.464V776.086M1274.64 716.464H1335.38M1274.64 776.086V835.708M1274.64 776.086H1335.38M1274.64 835.708V895.33M1274.64 835.708H1335.38M1274.64 895.33V954.952M1274.64 895.33H1335.38M1274.64 954.952V1014.57M1274.64 954.952H1335.38M1274.64 1014.57V1074.2M1274.64 1014.57H1335.38M1274.64 1074.2V1133.82M1274.64 1074.2H1335.38M1274.64 1133.82V1193.44M1274.64 1133.82H1335.38M1274.64 1193.44H1335.38M1335.38 1V60.622M1335.38 1H1396.11M1335.38 60.622V120.244M1335.38 60.622H1396.11M1335.38 120.244V179.866M1335.38 120.244H1396.11M1335.38 179.866V239.488M1335.38 179.866H1396.11M1335.38 239.488V299.11M1335.38 239.488H1396.11M1335.38 299.11V358.732M1335.38 299.11H1396.11M1335.38 358.732V418.354M1335.38 358.732H1396.11M1335.38 418.354V477.976M1335.38 418.354H1396.11M1335.38 477.976V537.598M1335.38 477.976H1396.11M1335.38 537.598V597.22M1335.38 537.598H1396.11M1335.38 597.22V656.842M1335.38 597.22H1396.11M1335.38 656.842V716.464M1335.38 656.842H1396.11M1335.38 716.464V776.086M1335.38 716.464H1396.11M1335.38 776.086V835.708M1335.38 776.086H1396.11M1335.38 835.708V895.33M1335.38 835.708H1396.11M1335.38 895.33V954.952M1335.38 895.33H1396.11M1335.38 954.952V1014.57M1335.38 954.952H1396.11M1335.38 1014.57V1074.2M1335.38 1014.57H1396.11M1335.38 1074.2V1133.82M1335.38 1074.2H1396.11M1335.38 1133.82V1193.44M1335.38 1133.82H1396.11M1335.38 1193.44H1396.11M1396.11 1V60.622M1396.11 1H1456.84M1396.11 60.622V120.244M1396.11 60.622H1456.84M1396.11 120.244V179.866M1396.11 120.244H1456.84M1396.11 179.866V239.488M1396.11 179.866H1456.84M1396.11 239.488V299.11M1396.11 239.488H1456.84M1396.11 299.11V358.732M1396.11 299.11H1456.84M1396.11 358.732V418.354M1396.11 358.732H1456.84M1396.11 418.354V477.976M1396.11 418.354H1456.84M1396.11 477.976V537.598M1396.11 477.976H1456.84M1396.11 537.598V597.22M1396.11 537.598H1456.84M1396.11 597.22V656.842M1396.11 597.22H1456.84M1396.11 656.842V716.464M1396.11 656.842H1456.84M1396.11 716.464V776.086M1396.11 716.464H1456.84M1396.11 776.086V835.708M1396.11 776.086H1456.84M1396.11 835.708V895.33M1396.11 835.708H1456.84M1396.11 895.33V954.952M1396.11 895.33H1456.84M1396.11 954.952V1014.57M1396.11 954.952H1456.84M1396.11 1014.57V1074.2M1396.11 1014.57H1456.84M1396.11 1074.2V1133.82M1396.11 1074.2H1456.84M1396.11 1133.82V1193.44M1396.11 1133.82H1456.84M1396.11 1193.44H1456.84M1456.84 1V60.622M1456.84 1H1517.57M1456.84 60.622V120.244M1456.84 60.622H1517.57M1456.84 120.244V179.866M1456.84 120.244H1517.57M1456.84 179.866V239.488M1456.84 179.866H1517.57M1456.84 239.488V299.11M1456.84 239.488H1517.57M1456.84 299.11V358.732M1456.84 299.11H1517.57M1456.84 358.732V418.354M1456.84 358.732H1517.57M1456.84 418.354V477.976M1456.84 418.354H1517.57M1456.84 477.976V537.598M1456.84 477.976H1517.57M1456.84 537.598V597.22M1456.84 537.598H1517.57M1456.84 597.22V656.842M1456.84 597.22H1517.57M1456.84 656.842V716.464M1456.84 656.842H1517.57M1456.84 716.464V776.086M1456.84 716.464H1517.57M1456.84 776.086V835.708M1456.84 776.086H1517.57M1456.84 835.708V895.33M1456.84 835.708H1517.57M1456.84 895.33V954.952M1456.84 895.33H1517.57M1456.84 954.952V1014.57M1456.84 954.952H1517.57M1456.84 1014.57V1074.2M1456.84 1014.57H1517.57M1456.84 1074.2V1133.82M1456.84 1074.2H1517.57M1456.84 1133.82V1193.44M1456.84 1133.82H1517.57M1456.84 1193.44H1517.57M1517.57 1V60.622M1517.57 1H1578.3M1517.57 60.622V120.244M1517.57 60.622H1578.3M1517.57 120.244V179.866M1517.57 120.244H1578.3M1517.57 179.866V239.488M1517.57 179.866H1578.3M1517.57 239.488V299.11M1517.57 239.488H1578.3M1517.57 299.11V358.732M1517.57 299.11H1578.3M1517.57 358.732V418.354M1517.57 358.732H1578.3M1517.57 418.354V477.976M1517.57 418.354H1578.3M1517.57 477.976V537.598M1517.57 477.976H1578.3M1517.57 537.598V597.22M1517.57 537.598H1578.3M1517.57 597.22V656.842M1517.57 597.22H1578.3M1517.57 656.842V716.464M1517.57 656.842H1578.3M1517.57 716.464V776.086M1517.57 716.464H1578.3M1517.57 776.086V835.708M1517.57 776.086H1578.3M1517.57 835.708V895.33M1517.57 835.708H1578.3M1517.57 895.33V954.952M1517.57 895.33H1578.3M1517.57 954.952V1014.57M1517.57 954.952H1578.3M1517.57 1014.57V1074.2M1517.57 1014.57H1578.3M1517.57 1074.2V1133.82M1517.57 1074.2H1578.3M1517.57 1133.82V1193.44M1517.57 1133.82H1578.3M1517.57 1193.44H1578.3M1578.3 1V60.622M1578.3 1H1639.03M1578.3 60.622V120.244M1578.3 60.622H1639.03M1578.3 120.244V179.866M1578.3 120.244H1639.03M1578.3 179.866V239.488M1578.3 179.866H1639.03M1578.3 239.488V299.11M1578.3 239.488H1639.03M1578.3 299.11V358.732M1578.3 299.11H1639.03M1578.3 358.732V418.354M1578.3 358.732H1639.03M1578.3 418.354V477.976M1578.3 418.354H1639.03M1578.3 477.976V537.598M1578.3 477.976H1639.03M1578.3 537.598V597.22M1578.3 537.598H1639.03M1578.3 597.22V656.842M1578.3 597.22H1639.03M1578.3 656.842V716.464M1578.3 656.842H1639.03M1578.3 716.464V776.086M1578.3 716.464H1639.03M1578.3 776.086V835.708M1578.3 776.086H1639.03M1578.3 835.708V895.33M1578.3 835.708H1639.03M1578.3 895.33V954.952M1578.3 895.33H1639.03M1578.3 954.952V1014.57M1578.3 954.952H1639.03M1578.3 1014.57V1074.2M1578.3 1014.57H1639.03M1578.3 1074.2V1133.82M1578.3 1074.2H1639.03M1578.3 1133.82V1193.44M1578.3 1133.82H1639.03M1578.3 1193.44H1639.03M1639.03 1V60.622M1639.03 1H1699.76M1639.03 60.622V120.244M1639.03 60.622H1699.76M1639.03 120.244V179.866M1639.03 120.244H1699.76M1639.03 179.866V239.488M1639.03 179.866H1699.76M1639.03 239.488V299.11M1639.03 239.488H1699.76M1639.03 299.11V358.732M1639.03 299.11H1699.76M1639.03 358.732V418.354M1639.03 358.732H1699.76M1639.03 418.354V477.976M1639.03 418.354H1699.76M1639.03 477.976V537.598M1639.03 477.976H1699.76M1639.03 537.598V597.22M1639.03 537.598H1699.76M1639.03 597.22V656.842M1639.03 597.22H1699.76M1639.03 656.842V716.464M1639.03 656.842H1699.76M1639.03 716.464V776.086M1639.03 716.464H1699.76M1639.03 776.086V835.708M1639.03 776.086H1699.76M1639.03 835.708V895.33M1639.03 835.708H1699.76M1639.03 895.33V954.952M1639.03 895.33H1699.76M1639.03 954.952V1014.57M1639.03 954.952H1699.76M1639.03 1014.57V1074.2M1639.03 1014.57H1699.76M1639.03 1074.2V1133.82M1639.03 1074.2H1699.76M1639.03 1133.82V1193.44M1639.03 1133.82H1699.76M1639.03 1193.44H1699.76M1699.76 1V60.622M1699.76 1H1760.49M1699.76 60.622V120.244M1699.76 60.622H1760.49M1699.76 120.244V179.866M1699.76 120.244H1760.49M1699.76 179.866V239.488M1699.76 179.866H1760.49M1699.76 239.488V299.11M1699.76 239.488H1760.49M1699.76 299.11V358.732M1699.76 299.11H1760.49M1699.76 358.732V418.354M1699.76 358.732H1760.49M1699.76 418.354V477.976M1699.76 418.354H1760.49M1699.76 477.976V537.598M1699.76 477.976H1760.49M1699.76 537.598V597.22M1699.76 537.598H1760.49M1699.76 597.22V656.842M1699.76 597.22H1760.49M1699.76 656.842V716.464M1699.76 656.842H1760.49M1699.76 716.464V776.086M1699.76 716.464H1760.49M1699.76 776.086V835.708M1699.76 776.086H1760.49M1699.76 835.708V895.33M1699.76 835.708H1760.49M1699.76 895.33V954.952M1699.76 895.33H1760.49M1699.76 954.952V1014.57M1699.76 954.952H1760.49M1699.76 1014.57V1074.2M1699.76 1014.57H1760.49M1699.76 1074.2V1133.82M1699.76 1074.2H1760.49M1699.76 1133.82V1193.44M1699.76 1133.82H1760.49M1699.76 1193.44H1760.49M1760.49 1V60.622M1760.49 1H1821.22M1760.49 60.622V120.244M1760.49 60.622H1821.22M1760.49 120.244V179.866M1760.49 120.244H1821.22M1760.49 179.866V239.488M1760.49 179.866H1821.22M1760.49 239.488V299.11M1760.49 239.488H1821.22M1760.49 299.11V358.732M1760.49 299.11H1821.22M1760.49 358.732V418.354M1760.49 358.732H1821.22M1760.49 418.354V477.976M1760.49 418.354H1821.22M1760.49 477.976V537.598M1760.49 477.976H1821.22M1760.49 537.598V597.22M1760.49 537.598H1821.22M1760.49 597.22V656.842M1760.49 597.22H1821.22M1760.49 656.842V716.464M1760.49 656.842H1821.22M1760.49 716.464V776.086M1760.49 716.464H1821.22M1760.49 776.086V835.708M1760.49 776.086H1821.22M1760.49 835.708V895.33M1760.49 835.708H1821.22M1760.49 895.33V954.952M1760.49 895.33H1821.22M1760.49 954.952V1014.57M1760.49 954.952H1821.22M1760.49 1014.57V1074.2M1760.49 1014.57H1821.22M1760.49 1074.2V1133.82M1760.49 1074.2H1821.22M1760.49 1133.82V1193.44M1760.49 1133.82H1821.22M1760.49 1193.44H1821.22M1821.22 1V60.622M1821.22 1H1881.95M1821.22 60.622V120.244M1821.22 60.622H1881.95M1821.22 120.244V179.866M1821.22 120.244H1881.95M1821.22 179.866V239.488M1821.22 179.866H1881.95M1821.22 239.488V299.11M1821.22 239.488H1881.95M1821.22 299.11V358.732M1821.22 299.11H1881.95M1821.22 358.732V418.354M1821.22 358.732H1881.95M1821.22 418.354V477.976M1821.22 418.354H1881.95M1821.22 477.976V537.598M1821.22 477.976H1881.95M1821.22 537.598V597.22M1821.22 537.598H1881.95M1821.22 597.22V656.842M1821.22 597.22H1881.95M1821.22 656.842V716.464M1821.22 656.842H1881.95M1821.22 716.464V776.086M1821.22 716.464H1881.95M1821.22 776.086V835.708M1821.22 776.086H1881.95M1821.22 835.708V895.33M1821.22 835.708H1881.95M1821.22 895.33V954.952M1821.22 895.33H1881.95M1821.22 954.952V1014.57M1821.22 954.952H1881.95M1821.22 1014.57V1074.2M1821.22 1014.57H1881.95M1821.22 1074.2V1133.82M1821.22 1074.2H1881.95M1821.22 1133.82V1193.44M1821.22 1133.82H1881.95M1821.22 1193.44H1881.95M1881.95 1V60.622M1881.95 1H1942.68M1881.95 60.622V120.244M1881.95 60.622H1942.68M1881.95 120.244V179.866M1881.95 120.244H1942.68M1881.95 179.866V239.488M1881.95 179.866H1942.68M1881.95 239.488V299.11M1881.95 239.488H1942.68M1881.95 299.11V358.732M1881.95 299.11H1942.68M1881.95 358.732V418.354M1881.95 358.732H1942.68M1881.95 418.354V477.976M1881.95 418.354H1942.68M1881.95 477.976V537.598M1881.95 477.976H1942.68M1881.95 537.598V597.22M1881.95 537.598H1942.68M1881.95 597.22V656.842M1881.95 597.22H1942.68M1881.95 656.842V716.464M1881.95 656.842H1942.68M1881.95 716.464V776.086M1881.95 716.464H1942.68M1881.95 776.086V835.708M1881.95 776.086H1942.68M1881.95 835.708V895.33M1881.95 835.708H1942.68M1881.95 895.33V954.952M1881.95 895.33H1942.68M1881.95 954.952V1014.57M1881.95 954.952H1942.68M1881.95 1014.57V1074.2M1881.95 1014.57H1942.68M1881.95 1074.2V1133.82M1881.95 1074.2H1942.68M1881.95 1133.82V1193.44M1881.95 1133.82H1942.68M1881.95 1193.44H1942.68M1942.68 1V60.622M1942.68 1H2003.41M1942.68 60.622V120.244M1942.68 60.622H2003.41M1942.68 120.244V179.866M1942.68 120.244H2003.41M1942.68 179.866V239.488M1942.68 179.866H2003.41M1942.68 239.488V299.11M1942.68 239.488H2003.41M1942.68 299.11V358.732M1942.68 299.11H2003.41M1942.68 358.732V418.354M1942.68 358.732H2003.41M1942.68 418.354V477.976M1942.68 418.354H2003.41M1942.68 477.976V537.598M1942.68 477.976H2003.41M1942.68 537.598V597.22M1942.68 537.598H2003.41M1942.68 597.22V656.842M1942.68 597.22H2003.41M1942.68 656.842V716.464M1942.68 656.842H2003.41M1942.68 716.464V776.086M1942.68 716.464H2003.41M1942.68 776.086V835.708M1942.68 776.086H2003.41M1942.68 835.708V895.33M1942.68 835.708H2003.41M1942.68 895.33V954.952M1942.68 895.33H2003.41M1942.68 954.952V1014.57M1942.68 954.952H2003.41M1942.68 1014.57V1074.2M1942.68 1014.57H2003.41M1942.68 1074.2V1133.82M1942.68 1074.2H2003.41M1942.68 1133.82V1193.44M1942.68 1133.82H2003.41M1942.68 1193.44H2003.41M2003.41 1V60.622M2003.41 1H2064.14V60.622M2003.41 60.622V120.244M2003.41 60.622H2064.14M2003.41 120.244V179.866M2003.41 120.244H2064.14M2003.41 179.866V239.488M2003.41 179.866H2064.14M2003.41 239.488V299.11M2003.41 239.488H2064.14M2003.41 299.11V358.732M2003.41 299.11H2064.14M2003.41 358.732V418.354M2003.41 358.732H2064.14M2003.41 418.354V477.976M2003.41 418.354H2064.14M2003.41 477.976V537.598M2003.41 477.976H2064.14M2003.41 537.598V597.22M2003.41 537.598H2064.14M2003.41 597.22V656.842M2003.41 597.22H2064.14M2003.41 656.842V716.464M2003.41 656.842H2064.14M2003.41 716.464V776.086M2003.41 716.464H2064.14M2003.41 776.086V835.708M2003.41 776.086H2064.14M2003.41 835.708V895.33M2003.41 835.708H2064.14M2003.41 895.33V954.952M2003.41 895.33H2064.14M2003.41 954.952V1014.57M2003.41 954.952H2064.14M2003.41 1014.57V1074.2M2003.41 1014.57H2064.14M2003.41 1074.2V1133.82M2003.41 1074.2H2064.14M2003.41 1133.82V1193.44M2003.41 1133.82H2064.14M2003.41 1193.44H2064.14V1133.82M2064.14 60.622V120.244M2064.14 120.244V179.866M2064.14 179.866V239.488M2064.14 239.488V299.11M2064.14 299.11V358.732M2064.14 358.732V418.354M2064.14 418.354V477.976M2064.14 477.976V537.598M2064.14 537.598V597.22M2064.14 597.22V656.842M2064.14 656.842V716.464M2064.14 716.464V776.086M2064.14 776.086V835.708M2064.14 835.708V895.33M2064.14 895.33V954.952M2064.14 954.952V1014.57M2064.14 1014.57V1074.2M2064.14 1074.2V1133.82" stroke="url(#paint0_radial_121_1484)" stroke-width="0.805493"/>
</g>
<defs>
<radialGradient id="paint0_radial_121_1484" cx="0" cy="0" r="1" gradientUnits="userSpaceOnUse" gradientTransform="translate(728.071 597.22) rotate(90) scale(596.22 1336.07)">
<stop stop-color="#766C6C"/>
<stop offset="1" stop-color="white" stop-opacity="0"/>
</radialGradient>
</defs>
</svg>
