<svg width="1440" height="870" viewBox="0 0 1440 870" fill="none" xmlns="http://www.w3.org/2000/svg">
<path fill-rule="evenodd" clip-rule="evenodd" d="M1297.83 0.507042H1441.5V144.845H1312.71L1297.83 129.892V0.507042ZM1282.55 144.845L1297.24 130.084V0.507042H1153.57V144.845H1282.55ZM1297.24 159.977L1282.76 145.437H1153.57V289.775H1297.24V159.977ZM1312.49 145.437L1297.83 160.17V289.775H1441.5V145.437H1312.49ZM1442 0V144.93V145.352V289.859V290.282V434.789V435.211V579.718V580.141V724.648V725.07V870H1297.74H1297.32H1153.48H1153.06H1009.23H1008.81H864.969H864.548H720.711H720.29H576.453H576.032H432.195H431.775H287.937H287.516H143.679H143.259H-0.999268L-0.999634 725.07V580.141V579.718V434.789V290.282V145.352V144.93V0H143.259H143.679H287.516H287.937H431.775H432.195H576.032H576.453H720.29H720.711H864.548H864.969H1008.81H1009.23H1153.06H1153.48H1297.32H1297.74H1442ZM1152.98 0.507042H1009.31V144.845H1152.98V0.507042ZM865.053 0.507042H1008.72V144.845H865.053V0.507042ZM864.464 0.507042H720.795V144.845H864.464V0.507042ZM576.537 0.507042H720.206V144.845H576.537V0.507042ZM575.948 0.507042H432.279V144.845H575.948V0.507042ZM288.021 0.507042H431.69V144.845H288.021V0.507042ZM287.433 0.507042H143.764V144.845H287.433V0.507042ZM-0.494995 0.507042H143.174V144.845H-0.494995V0.507042ZM1152.98 145.437H1009.31V289.775H1152.98V145.437ZM865.053 145.437H1008.72V289.775H879.504L865.053 275.256V145.437ZM850.244 289.775L864.464 275.489V145.437H720.795V289.775H850.244ZM864.464 305.342L849.606 290.415L849.656 290.366H720.795V434.704H864.464V305.342ZM880.092 290.366L880.142 290.415L865.053 305.574V434.704H1008.72V290.366H880.092ZM576.537 145.437H720.206V289.775H576.537V145.437ZM575.948 145.437H432.279V289.775H575.948V145.437ZM288.021 145.437H431.69V289.775H288.021V145.437ZM287.433 145.437H143.764V249.731L144.007 249.976L183.622 289.775H287.433V145.437ZM184.21 290.366H287.432V420.484L286.95 420L272.314 434.704H143.763V331.101L144.007 330.855L183.87 290.807L184.26 290.415L184.21 290.366ZM143.763 330.317L183.48 290.415L183.431 290.366H158.836L158.885 290.415L143.763 305.608V330.317ZM143.175 330.802V434.704H-0.494507V290.366H103.024L102.975 290.415L103.365 290.807L143.175 330.802ZM103.804 290.366L103.755 290.415L143.175 330.019V305.309L128.35 290.415L128.399 290.366H103.804ZM103.613 289.775H-0.494995V145.437H143.174V250.029L103.613 289.775ZM143.174 250.813L104.393 289.775H128.987L143.174 275.522V250.813ZM143.764 250.514L182.842 289.775H158.247L143.764 275.224V250.514ZM287.433 450.192L286.95 450.677L271.682 435.338L271.725 435.296H143.764V579.634H287.433V450.192ZM302.175 435.296L302.218 435.338L288.021 449.601V579.634H431.69V435.296H302.175ZM288.021 421.076L301.586 434.704H431.69V290.366H288.021V421.076ZM1441.5 290.366H1297.83V434.704H1441.5V290.366ZM1153.57 290.366H1297.24V434.704H1153.57V290.366ZM1152.98 290.366H1009.31V434.704H1152.98V290.366ZM576.537 290.366H720.206V434.704H576.537V290.366ZM575.948 290.366H432.279V434.704H575.948V290.366ZM1441.5 435.296H1297.83V579.634H1441.5V435.296ZM1153.57 435.296H1297.24V579.634H1193.27L1193.45 579.446L1193.06 579.054L1153.57 539.377V435.296ZM1153.57 540.16L1192.67 579.446L1192.49 579.634H1167.89L1168.08 579.446L1153.57 564.87V540.16ZM1152.98 564.278V539.569L1152.81 539.398L1112.95 579.446L1113.13 579.634H1137.73L1137.54 579.446L1152.81 564.107L1152.98 564.278ZM1152.98 594.614L1152.81 594.785L1138.32 580.225H1113.72L1152.81 619.494L1152.98 619.323V594.614ZM1167.3 580.225L1153.57 594.022V618.732L1191.9 580.225H1167.3ZM1192.68 580.225H1297.24V724.563H1153.57V619.515L1192.68 580.225ZM1152.98 620.106V724.563H1009.31V580.225H1112.94L1152.42 619.886L1152.81 620.277L1152.98 620.106ZM1112.35 579.634H1009.31V435.296H1152.98V538.786L1152.81 538.615L1152.42 539.006L1112.56 579.054L1112.17 579.446L1112.35 579.634ZM865.053 435.296H1008.72V579.634H865.053V435.296ZM864.464 435.296H720.795V579.634H864.464V435.296ZM576.537 435.296H720.206V579.634H576.537V435.296ZM575.948 435.296H432.279V579.634H575.948V435.296ZM-0.494995 435.296H143.174V579.634H-0.494995V435.296ZM1441.5 580.225H1297.83V724.563H1441.5V580.225ZM865.053 580.225H1008.72V724.563H865.053V580.225ZM864.464 580.225H720.795V724.563H864.464V580.225ZM576.537 580.225H720.206V724.563H576.537V580.225ZM575.948 580.225H432.279V724.563H575.948V580.225ZM288.021 580.225H431.69V724.563H288.021V580.225ZM287.433 580.225H143.764V724.563H287.433V580.225ZM-0.494995 580.225H143.174V724.563H-0.494995V580.225ZM1441.5 725.155H1297.83V869.493H1441.5V725.155ZM1153.57 725.155H1297.24V869.493H1153.57V725.155ZM1152.98 725.155H1009.31V869.493H1152.98V725.155ZM865.053 725.155H1008.72V869.493H865.053V725.155ZM864.464 725.155H720.795V869.493H864.464V725.155ZM576.537 725.155H720.206V869.493H576.537V725.155ZM575.948 725.155H432.279V869.493H575.948V725.155ZM288.021 725.155H431.69V869.493H288.021V725.155ZM287.433 725.155H143.764V869.493H287.433V725.155ZM-0.494507 725.155H143.175V869.493H-0.494507V725.155Z" fill="url(#paint0_radial_121_278)"/>
<defs>
<radialGradient id="paint0_radial_121_278" cx="0" cy="0" r="1" gradientUnits="userSpaceOnUse" gradientTransform="translate(720.5 -488.307) rotate(90) scale(1335.81 2215.6)">
<stop stop-color="#0015CD"/>
<stop offset="1" stop-color="#F4F4F4"/>
</radialGradient>
</defs>
</svg>
