<svg width="22" height="22" viewBox="0 0 22 22" fill="none" xmlns="http://www.w3.org/2000/svg">
<path d="M3.18404 18.564L3.52453 17.8958H3.52453L3.18404 18.564ZM1.43597 16.816L0.767719 17.1565L0.767719 17.1565L1.43597 16.816ZM16.816 1.43597L17.1565 0.767719L17.1565 0.767719L16.816 1.43597ZM18.564 3.18404L17.8958 3.52453V3.52453L18.564 3.18404ZM3.18404 1.43597L3.52453 2.10423L3.18404 1.43597ZM1.43597 3.18404L2.10423 3.52453L1.43597 3.18404ZM18.25 9C18.25 9.41421 18.5858 9.75 19 9.75C19.4142 9.75 19.75 9.41421 19.75 9H18.25ZM9 19.75C9.41421 19.75 9.75 19.4142 9.75 19C9.75 18.5858 9.41421 18.25 9 18.25V19.75ZM6 5.25C5.58579 5.25 5.25 5.58579 5.25 6C5.25 6.41421 5.58579 6.75 6 6.75V5.25ZM14 6.75C14.4142 6.75 14.75 6.41421 14.75 6C14.75 5.58579 14.4142 5.25 14 5.25V6.75ZM6 9.25C5.58579 9.25 5.25 9.58579 5.25 10C5.25 10.4142 5.58579 10.75 6 10.75V9.25ZM14 10.75C14.4142 10.75 14.75 10.4142 14.75 10C14.75 9.58579 14.4142 9.25 14 9.25V10.75ZM6 13.25C5.58579 13.25 5.25 13.5858 5.25 14C5.25 14.4142 5.58579 14.75 6 14.75V13.25ZM10 14.75C10.4142 14.75 10.75 14.4142 10.75 14C10.75 13.5858 10.4142 13.25 10 13.25V14.75ZM12.2532 19.4966L12.9647 19.7338L12.2532 19.4966ZM12.716 18.1082L12.0045 17.871L12.0045 17.871L12.716 18.1082ZM13.1935 17.3356L13.7239 17.8659H13.7239L13.1935 17.3356ZM17.8054 12.7237L17.2751 12.1934L17.2751 12.1934L17.8054 12.7237ZM20.2763 15.1946L20.8066 15.7249L20.2763 15.1946ZM15.6644 19.8065L15.1341 19.2761L15.1341 19.2761L15.6644 19.8065ZM14.8918 20.284L15.129 20.9955L15.129 20.9955L14.8918 20.284ZM13.5034 20.7468L13.7406 21.4583H13.7406L13.5034 20.7468ZM15.4112 20.0429L15.8628 20.6416L15.4112 20.0429ZM15.2165 20.1632L14.883 19.4914H14.883L15.2165 20.1632ZM20.2763 12.7237L19.746 13.254L20.2763 12.7237ZM20.8715 13.4106L21.5436 13.0776L20.8715 13.4106ZM20.8715 14.5077L21.5436 14.8407L20.8715 14.5077ZM18.4923 12.1285L18.8253 12.8005L18.4923 12.1285ZM19.5894 12.1285L19.2564 12.8005L19.5894 12.1285ZM12.8368 17.7835L13.5086 18.117L12.8368 17.7835ZM12.9571 17.5888L12.3584 17.1372V17.1372L12.9571 17.5888ZM12.023 20.6026L12.7294 20.3507L12.023 20.6026ZM12.3974 20.977L12.1454 21.6834L12.3974 20.977ZM7.4 1.75H12.6V0.25H7.4V1.75ZM1.75 12.6V7.4H0.25V12.6H1.75ZM7.4 18.25C6.26752 18.25 5.46326 18.2494 4.83388 18.198C4.21325 18.1473 3.829 18.0509 3.52453 17.8958L2.84354 19.2323C3.39472 19.5131 3.99834 19.6347 4.71173 19.693C5.41637 19.7506 6.29227 19.75 7.4 19.75V18.25ZM0.25 12.6C0.25 13.7077 0.249417 14.5836 0.306988 15.2883C0.365274 16.0017 0.486882 16.6053 0.767719 17.1565L2.10423 16.4755C1.94909 16.171 1.85271 15.7867 1.80201 15.1661C1.75058 14.5367 1.75 13.7325 1.75 12.6H0.25ZM3.52453 17.8958C2.913 17.5842 2.41582 17.087 2.10423 16.4755L0.767719 17.1565C1.22312 18.0502 1.94977 18.7769 2.84355 19.2323L3.52453 17.8958ZM12.6 1.75C13.7325 1.75 14.5367 1.75058 15.1661 1.80201C15.7867 1.85271 16.171 1.94909 16.4755 2.10423L17.1565 0.767719C16.6053 0.486882 16.0017 0.365274 15.2883 0.306988C14.5836 0.249417 13.7077 0.25 12.6 0.25V1.75ZM19.75 7.4C19.75 6.29227 19.7506 5.41637 19.693 4.71173C19.6347 3.99834 19.5131 3.39472 19.2323 2.84354L17.8958 3.52453C18.0509 3.829 18.1473 4.21325 18.198 4.83388C18.2494 5.46326 18.25 6.26752 18.25 7.4H19.75ZM16.4755 2.10423C17.087 2.41582 17.5842 2.913 17.8958 3.52453L19.2323 2.84355C18.7769 1.94977 18.0502 1.22312 17.1565 0.767719L16.4755 2.10423ZM7.4 0.25C6.29227 0.25 5.41637 0.249417 4.71173 0.306988C3.99834 0.365274 3.39472 0.486882 2.84354 0.767719L3.52453 2.10423C3.829 1.94909 4.21325 1.85271 4.83388 1.80201C5.46326 1.75058 6.26752 1.75 7.4 1.75V0.25ZM1.75 7.4C1.75 6.26752 1.75058 5.46326 1.80201 4.83388C1.85271 4.21325 1.94909 3.829 2.10423 3.52453L0.767719 2.84354C0.486882 3.39472 0.365274 3.99834 0.306988 4.71173C0.249417 5.41637 0.25 6.29227 0.25 7.4H1.75ZM2.84355 0.767719C1.94978 1.22312 1.22312 1.94978 0.767719 2.84355L2.10423 3.52453C2.41582 2.913 2.913 2.41582 3.52453 2.10423L2.84355 0.767719ZM18.25 7.4V9H19.75V7.4H18.25ZM7.4 19.75H9V18.25H7.4V19.75ZM6 6.75H14V5.25H6V6.75ZM6 10.75H14V9.25H6V10.75ZM6 14.75H10V13.25H6V14.75ZM12.9647 19.7338L13.4275 18.3454L12.0045 17.871L11.5417 19.2594L12.9647 19.7338ZM13.7239 17.8659L18.3357 13.254L17.2751 12.1934L12.6632 16.8052L13.7239 17.8659ZM19.746 14.6643L15.1341 19.2761L16.1948 20.3368L20.8066 15.7249L19.746 14.6643ZM14.6546 19.5725L13.2662 20.0353L13.7406 21.4583L15.129 20.9955L14.6546 19.5725ZM15.1341 19.2761C14.9969 19.4133 14.9769 19.431 14.9595 19.4441L15.8628 20.6416C15.9828 20.5511 16.0859 20.4457 16.1948 20.3368L15.1341 19.2761ZM15.129 20.9955C15.2751 20.9468 15.4155 20.9017 15.5501 20.8349L14.883 19.4914C14.8634 19.5011 14.8387 19.5111 14.6546 19.5725L15.129 20.9955ZM14.9595 19.4441C14.9355 19.4622 14.9099 19.478 14.883 19.4914L15.5501 20.8349C15.6601 20.7803 15.7648 20.7156 15.8628 20.6416L14.9595 19.4441ZM19.746 13.254C20.1256 13.6337 20.1779 13.7 20.1995 13.7436L21.5436 13.0776C21.3851 12.7578 21.1006 12.4874 20.8066 12.1934L19.746 13.254ZM20.8066 15.7249C21.1006 15.4309 21.3851 15.1605 21.5436 14.8407L20.1995 14.1747C20.1779 14.2183 20.1256 14.2846 19.746 14.6643L20.8066 15.7249ZM20.1995 13.7436C20.2668 13.8794 20.2668 14.0389 20.1995 14.1747L21.5436 14.8407C21.8188 14.2853 21.8188 13.6331 21.5436 13.0776L20.1995 13.7436ZM18.3357 13.254C18.7153 12.8744 18.7817 12.8221 18.8253 12.8005L18.1593 11.4564C17.8395 11.6149 17.569 11.8994 17.2751 12.1934L18.3357 13.254ZM20.8066 12.1934C20.5126 11.8994 20.2422 11.6149 19.9224 11.4564L19.2564 12.8005C19.3 12.8221 19.3663 12.8744 19.746 13.254L20.8066 12.1934ZM18.8253 12.8005C18.9611 12.7332 19.1206 12.7332 19.2564 12.8005L19.9224 11.4564C19.3669 11.1812 18.7148 11.1812 18.1593 11.4564L18.8253 12.8005ZM13.4275 18.3454C13.4889 18.1613 13.4989 18.1366 13.5086 18.117L12.1651 17.4499C12.0983 17.5845 12.0532 17.7249 12.0045 17.871L13.4275 18.3454ZM12.6632 16.8052C12.5543 16.9141 12.4489 17.0172 12.3584 17.1372L13.5559 18.0405C13.569 18.0231 13.5867 18.0031 13.7239 17.8659L12.6632 16.8052ZM13.5086 18.117C13.522 18.0901 13.5378 18.0645 13.5559 18.0405L12.3584 17.1372C12.2844 17.2352 12.2197 17.3399 12.1651 17.4499L13.5086 18.117ZM11.5417 19.2594C11.4458 19.547 11.3568 19.8119 11.3057 20.0291C11.2573 20.2353 11.2047 20.5409 11.3166 20.8546L12.7294 20.3507C12.7697 20.4637 12.7317 20.5181 12.7659 20.3723C12.7976 20.2375 12.8594 20.0497 12.9647 19.7338L11.5417 19.2594ZM13.2662 20.0353C12.9503 20.1406 12.7625 20.2024 12.6277 20.2341C12.4819 20.2683 12.5363 20.2303 12.6493 20.2706L12.1454 21.6834C12.4591 21.7953 12.7648 21.7427 12.9709 21.6943C13.1881 21.6432 13.453 21.5542 13.7406 21.4583L13.2662 20.0353ZM11.3166 20.8546C11.4545 21.2412 11.7588 21.5455 12.1454 21.6834L12.6493 20.2706C12.6867 20.2839 12.7161 20.3133 12.7294 20.3507L11.3166 20.8546Z" fill="black"/>
</svg>
