<svg width="252" height="431" viewBox="0 0 252 431" fill="none" xmlns="http://www.w3.org/2000/svg">
<path fill-rule="evenodd" clip-rule="evenodd" d="M0.146867 387.938L0.146867 430.849H41.9551V392.383L37.6238 387.938H0.146867ZM41.9551 383.373L37.6796 387.762H0.146867L0.146867 344.85H41.9551L41.9551 383.373ZM46.3383 387.762L42.1265 383.439L42.1265 344.85H83.9347V387.762H46.3383ZM42.1265 392.318L46.3941 387.938H83.9347V430.849H42.1265V392.318ZM0 431H41.9796H42.102H83.9591H84.0816H125.939H126.061H167.918H168.041H209.898H210.02H252V387.913V387.787V344.825V344.699V301.738V301.612V258.65V258.525V215.563V215.437L252 172.475V172.35V129.388V129.262V86.3007V86.1749V43.2132V43.0876V0.00012207L210.02 0H168.041H167.918H125.939H84.0816H42.102H41.9796H0L0 43.0876L0 43.213L0 86.1749L0 86.3007L0 129.262L0 129.388L0 172.35L0 172.475L0 215.437L0 215.563L0 258.525L0 258.65L0 301.612L0 301.738L0 344.699L0 344.825L0 387.787L0 387.913L0 431ZM0.146867 344.674L0.146867 301.763H41.9551V344.674H0.146867ZM0.146867 258.675L0.146867 301.587H41.9551V258.675H0.146867ZM0.146867 258.5L0.146867 215.588H41.9551L41.9551 258.5H0.146867ZM0.146867 172.501L0.146867 215.412H41.9551V172.501H0.146867ZM0.146867 172.325L0.146867 129.413H41.9551L41.9551 172.325H0.146867ZM0.146867 86.3257L0.146867 129.237H41.9551V86.3257H0.146867ZM0.146867 86.1499L0.146867 43.2384H41.9551V86.1499H0.146867ZM0.146867 0.150757L0.146867 43.0623H41.9551L41.9551 0.150757H0.146867ZM42.1265 344.674V301.763H83.9347L83.9347 344.674H42.1265ZM42.1265 258.675V301.587H83.9347V262.992L79.7294 258.675H42.1265ZM83.9347 254.252L79.7967 258.5H42.1265L42.1265 215.588H83.9347V254.252ZM88.4439 258.5L84.1203 254.062L84.106 254.077V215.588H125.914V258.5H88.4439ZM84.106 263.167L84.1203 263.182L88.5112 258.675H125.914V301.587H84.106V263.167ZM42.1265 172.501V215.412H83.9347V172.501H42.1265ZM42.1265 172.325L42.1265 129.413H83.9347V172.325H42.1265ZM42.1265 86.3257V129.237H83.9347V86.3257H42.1265ZM42.1265 86.1499V43.2384H72.3358L72.4067 43.3112L83.9347 55.1434L83.9347 86.1499H42.1265ZM84.106 55.3192L84.106 86.1498H121.795L121.655 86.0057L125.914 81.6341V43.2382H95.905L95.8339 43.3112L84.2338 55.2174L84.1203 55.3339L84.106 55.3192ZM95.6781 43.2382L84.1203 55.101L84.106 55.0863V47.7402L84.1203 47.7549L88.5208 43.2382H95.6781ZM95.8185 43.0624H125.914V0.150879H84.106V31.0703L84.1203 31.0556L84.2338 31.172L95.8185 43.0624ZM84.106 31.3031L84.1203 31.2885L95.5916 43.0624H88.4344L84.1203 38.6345L84.106 38.6492V31.3031ZM83.9347 31.2461V0.150757H42.1265L42.1265 43.0623H72.4223L83.9347 31.2461ZM72.6492 43.0623L83.9347 31.4789V38.825L79.8063 43.0623H72.6492ZM72.5627 43.2384L83.9347 54.9106V47.5644L79.7199 43.2384H72.5627ZM130.4 86.1499L130.541 86.0057L126.098 81.4455L126.086 81.4582V43.2384H167.894V86.1499H130.4ZM126.086 90.5532L126.098 90.5659L130.229 86.3257H167.894V129.237H126.086V90.5532ZM121.967 86.3257L125.914 90.3773V129.237H84.106V86.3257H121.967ZM84.106 430.849V387.938H125.914V430.849H84.106ZM84.106 344.85V387.762H125.914V344.85H84.106ZM84.106 344.674L84.106 301.763H125.914L125.914 344.674H84.106ZM84.106 172.5V215.412H125.914V172.5H84.106ZM84.106 172.325V129.413H125.914V172.325H84.106ZM126.086 430.849V387.938H167.894V430.849H126.086ZM126.086 344.85V387.762H167.894V356.707L167.84 356.763L167.726 356.646L156.233 344.85H126.086ZM156.46 344.85L167.84 356.53L167.894 356.474V349.128L167.84 349.184L163.617 344.85H156.46ZM163.446 344.674H156.289L156.239 344.624L167.84 332.717L167.894 332.773V340.119L167.84 340.063L163.397 344.624L163.446 344.674ZM172.233 344.674L172.282 344.624L168.065 340.295V332.949L179.44 344.624L179.39 344.674H172.233ZM168.065 348.952L172.062 344.85H179.219L168.065 356.298V348.952ZM168.065 356.531V387.762H209.873V344.85H179.446L168.065 356.531ZM179.617 344.674H209.873V301.763H168.065V332.716L179.553 344.507L179.667 344.624L179.617 344.674ZM167.894 332.54V301.763H126.086L126.086 344.674H156.062L156.012 344.624L156.126 344.507L167.726 332.601L167.84 332.484L167.894 332.54ZM126.086 258.675V301.587H167.894V258.675H126.086ZM126.086 258.5V215.588H167.894V258.5H126.086ZM126.086 172.501V215.412H167.894L167.894 172.501H126.086ZM126.086 172.325V129.413H167.894V172.325H126.086ZM126.086 0.150757V43.0623H167.894V0.150757H126.086ZM168.065 430.849V387.938H209.873V430.849H168.065ZM168.065 258.675V301.587H209.873V258.675H168.065ZM168.065 258.5V215.588H209.873V258.5H168.065ZM168.065 172.501L168.065 215.412H209.873L209.873 172.501H168.065ZM168.065 172.325V129.413H209.873V172.325H168.065ZM168.065 86.3257V129.237H209.873V86.3257H168.065ZM168.065 86.1499V43.2384H209.873V86.1499H168.065ZM168.065 0.150757V43.0623H209.873V0.150757H168.065ZM210.045 430.849V387.938H251.853V430.849H210.045ZM210.045 344.85V387.762H251.853V344.85H210.045ZM210.045 344.674V301.763H251.853V344.674H210.045ZM210.045 258.675V301.587H251.853V258.675H210.045ZM210.045 258.5V215.588L251.853 215.588V258.5H210.045ZM210.045 172.501L210.045 215.412L251.853 215.412L251.853 172.501H210.045ZM210.045 172.325V129.413H251.853V172.325H210.045ZM210.045 86.3257V129.237H251.853V86.3257H210.045ZM210.045 86.1499V43.2384H251.853V86.1499H210.045ZM210.045 0.150879V43.0624H251.853V0.150879H210.045Z" fill="url(#paint0_linear_159_251)" fill-opacity="0.7"/>
<defs>
<linearGradient id="paint0_linear_159_251" x1="126" y1="115.757" x2="126" y2="451.132" gradientUnits="userSpaceOnUse">
<stop stop-color="white" stop-opacity="0"/>
<stop offset="1" stop-color="white" stop-opacity="0.61"/>
</linearGradient>
</defs>
</svg>
