<svg width="65" height="27" viewBox="0 0 65 27" fill="none" xmlns="http://www.w3.org/2000/svg">
<path fill-rule="evenodd" clip-rule="evenodd" d="M65 0C62.1833 3.80754 57.4631 8.0163 51.2416 7.84188C50.8393 10.5597 49.044 14.8365 46.15 16.5532C44.7623 17.3767 43.2095 17.7817 41.6567 18.1877C37.9579 19.1527 34.2437 20.1204 32.7012 26.7381C32.6754 26.8256 32.598 27 32.5 27V0L65 0ZM32.5 0V27C32.402 27 32.3246 26.8256 32.2988 26.7381C30.7563 20.1204 27.0421 19.1527 23.3433 18.1877C21.7905 17.7817 20.2377 17.3767 18.85 16.5532C15.956 14.8365 14.1607 10.5597 13.7584 7.84188C7.53692 8.0163 2.81667 3.80754 0 0L32.5 0Z" fill="#E0E0E6"/>
</svg>
