<svg width="16" height="16" viewBox="0 0 16 16" fill="none" xmlns="http://www.w3.org/2000/svg">
<path d="M8.00009 5V8L9.29904 8.75M0.694546 9.70455C0.567282 9.15694 0.5 8.58633 0.5 8C0.5 7.41367 0.567282 6.84306 0.694546 6.29545M6.63636 0.623666C7.07856 0.542441 7.53432 0.5 8 0.5C12.1421 0.5 15.5 3.85786 15.5 8C15.5 12.1421 12.1421 15.5 8 15.5C7.53432 15.5 7.07856 15.4576 6.63636 15.3763M4.25 1.50337C3.22702 2.09513 2.35678 2.92158 1.71291 3.90909M1.71291 12.0909C2.35678 13.0784 3.22702 13.9049 4.25 14.4966" stroke="#9D9E9E" stroke-linecap="round"/>
</svg>
