<svg width="43" height="21" viewBox="0 0 43 21" fill="none" xmlns="http://www.w3.org/2000/svg">
<path fill-rule="evenodd" clip-rule="evenodd" d="M0 0C1.86333 2.961 4.98597 6.23701 9.10168 6.09841C9.36787 8.21521 10.5555 11.5416 12.47 12.873C13.388 13.5156 14.4152 13.8306 15.4425 14.1456C17.8894 14.8974 20.3465 15.6492 21.3669 20.7942C21.384 20.8656 21.4352 21 21.5 21V0H0ZM21.5 0V21C21.5648 21 21.616 20.8656 21.6331 20.7942C22.6535 15.6492 25.1106 14.8974 27.5575 14.1456C28.5848 13.8306 29.612 13.5156 30.53 12.873C32.4445 11.5416 33.6321 8.21521 33.8983 6.09841C38.014 6.23701 41.1367 2.961 43 0L21.5 0Z" fill="#2C3370"/>
</svg>
