<svg width="16" height="12" viewBox="0 0 16 12" fill="none" xmlns="http://www.w3.org/2000/svg">
<path d="M1.18212 6.87882C0.925946 6.32148 0.925946 5.67852 1.18212 5.12118C2.36795 2.54132 4.97494 0.75 8.00032 0.75C11.0257 0.75 13.6327 2.54132 14.8185 5.12118C15.0747 5.67852 15.0747 6.32149 14.8185 6.87882C13.6327 9.45868 11.0257 11.25 8.00032 11.25C4.97494 11.25 2.36795 9.45868 1.18212 6.87882Z" stroke="#9D9E9E"/>
<path d="M10.2503 6C10.2503 7.24264 9.24296 8.25 8.00032 8.25C6.75768 8.25 5.75032 7.24264 5.75032 6C5.75032 4.75736 6.75768 3.75 8.00032 3.75C9.24296 3.75 10.2503 4.75736 10.2503 6Z" stroke="#9D9E9E"/>
</svg>
