<svg width="34" height="35" viewBox="0 0 34 35" fill="none" xmlns="http://www.w3.org/2000/svg">
<path d="M21.9571 15.6525C22.3476 15.262 22.3476 14.6288 21.9571 14.2383C21.5666 13.8478 20.9334 13.8478 20.5429 14.2383L21.9571 15.6525ZM15.4837 20.5257L16.1385 19.7699L16.1385 19.7699L15.4837 20.5257ZM13.4048 17.4015C12.9874 17.0398 12.3559 17.085 11.9942 17.5024C11.6326 17.9198 11.6778 18.5514 12.0952 18.913L13.4048 17.4015ZM10.8894 6.12972L10.7621 5.13786L10.8894 6.12972ZM11.7876 5.9784L12.0704 6.93759L11.7876 5.9784ZM13.0838 5.22078L13.6951 6.01214L13.0838 5.22078ZM12.3416 5.74891L11.8633 4.87072L12.3416 5.74891ZM5.53514 10.2333L6.52701 10.3606L5.53514 10.2333ZM6.05701 7.87785L6.92369 8.37672L6.05701 7.87785ZM9.45455 6.31386L9.58184 7.30573L9.45455 6.31386ZM7.09913 6.83573L7.598 7.70241L7.09913 6.83573ZM4.44205 13.8625L3.65069 13.2512H3.65069L4.44205 13.8625ZM4.97019 13.1204L4.092 12.6421L4.97019 13.1204ZM5.351 11.6681L4.35914 11.5408L5.351 11.6681ZM5.19968 12.5663L6.15887 12.8491L5.19968 12.5663ZM3.55768 20.5502L4.34904 19.9388H4.34904L3.55768 20.5502ZM2.26116 18.5156L3.22675 18.2555L2.26116 18.5156ZM3.55768 15.0073L4.34904 15.6186H4.34904L3.55768 15.0073ZM2.26116 17.0418L3.22675 17.3019L2.26116 17.0418ZM5.351 23.8893L4.35914 24.0166L5.351 23.8893ZM5.19968 22.9911L4.24049 23.2739L5.19968 22.9911ZM4.44205 21.695L3.65069 22.3063L4.44205 21.695ZM4.97019 22.4371L5.84839 21.9588L4.97019 22.4371ZM9.45455 29.2436L9.58184 28.2517H9.58184L9.45455 29.2436ZM7.09913 28.7217L7.598 27.855L7.09913 28.7217ZM5.53514 25.3242L6.52701 25.1969L5.53514 25.3242ZM6.05701 27.6796L5.19033 28.1785L6.05701 27.6796ZM13.0838 30.3367L13.6951 29.5453H13.6951L13.0838 30.3367ZM12.3416 29.8085L12.8199 28.9303L12.3416 29.8085ZM10.8894 29.4277L10.7621 30.4196H10.7621L10.8894 29.4277ZM11.7876 29.579L12.0704 28.6199L11.7876 29.579ZM19.7714 31.2211L20.3828 32.0124L19.7714 31.2211ZM17.7369 32.5176L17.4768 31.552L17.7369 32.5176ZM14.2286 31.2211L13.6172 32.0124H13.6172L14.2286 31.2211ZM16.2631 32.5176L16.5232 31.552L16.2631 32.5176ZM23.1106 29.4277L23.2379 30.4196H23.2379L23.1106 29.4277ZM22.2124 29.579L21.9296 28.6199L22.2124 29.579ZM20.9162 30.3367L20.3049 29.5453L20.9162 30.3367ZM21.6584 29.8085L21.1801 28.9303L21.6584 29.8085ZM28.4649 25.3242L27.473 25.1969L28.4649 25.3242ZM27.943 27.6796L28.8097 28.1785L27.943 27.6796ZM24.5455 29.2436L24.4182 28.2517H24.4182L24.5455 29.2436ZM26.9009 28.7217L27.3997 29.5884L26.9009 28.7217ZM29.558 21.695L28.7666 21.0836L29.558 21.695ZM29.0298 22.4371L28.1516 21.9588L29.0298 22.4371ZM28.649 23.8893L29.6409 24.0166V24.0166L28.649 23.8893ZM28.8003 22.9911L27.8411 22.7084L28.8003 22.9911ZM30.4423 15.0073L31.2337 14.3959V14.3959L30.4423 15.0073ZM31.7388 17.0418L30.7733 17.3019L31.7388 17.0418ZM30.4423 20.5502L31.2337 21.1615V21.1615L30.4423 20.5502ZM31.7388 18.5156L30.7733 18.2555L31.7388 18.5156ZM28.649 11.6681L29.6409 11.5408V11.5408L28.649 11.6681ZM28.8003 12.5663L27.8411 12.8491L28.8003 12.5663ZM29.558 13.8625L28.7666 14.4738V14.4738L29.558 13.8625ZM29.0298 13.1204L28.1516 13.5987L29.0298 13.1204ZM24.5455 6.31386L24.4182 7.30573L24.5455 6.31386ZM26.9009 6.83573L27.3997 5.96905L26.9009 6.83573ZM28.4649 10.2333L27.473 10.3606V10.3606L28.4649 10.2333ZM27.943 7.87785L27.0763 8.37672L27.943 7.87785ZM20.9162 5.22078L20.3049 6.01214L20.9162 5.22078ZM21.6584 5.74891L21.1801 6.62711L21.6584 5.74891ZM23.1106 6.12972L23.2379 5.13786L23.1106 6.12972ZM22.2124 5.9784L22.4952 5.01921L22.2124 5.9784ZM19.7714 4.3364L20.3828 3.54504V3.54504L19.7714 4.3364ZM17.7369 3.03989L17.4768 4.00547L17.7369 3.03989ZM14.2286 4.3364L13.6172 3.54504L14.2286 4.3364ZM16.2631 3.03989L16.5232 4.00547L16.2631 3.03989ZM16.3837 21.2259L21.9571 15.6525L20.5429 14.2383L14.9695 19.8117L16.3837 21.2259ZM16.1385 19.7699L13.4048 17.4015L12.0952 18.913L14.8288 21.2815L16.1385 19.7699ZM14.9695 19.8117C15.2879 19.4933 15.7982 19.4751 16.1385 19.7699L14.8288 21.2815C15.2815 21.6737 15.9602 21.6494 16.3837 21.2259L14.9695 19.8117ZM19.1601 5.12776L20.3049 6.01214L21.5276 4.42941L20.3828 3.54504L19.1601 5.12776ZM22.9833 7.12159L24.4182 7.30573L24.6727 5.322L23.2379 5.13786L22.9833 7.12159ZM27.473 10.3606L27.6571 11.7954L29.6409 11.5408L29.4567 10.106L27.473 10.3606ZM28.7666 14.4738L29.651 15.6186L31.2337 14.3959L30.3493 13.2512L28.7666 14.4738ZM29.651 19.9388L28.7666 21.0836L30.3493 22.3063L31.2337 21.1615L29.651 19.9388ZM27.6571 23.7621L27.473 25.1969L29.4567 25.4515L29.6409 24.0166L27.6571 23.7621ZM24.4182 28.2517L22.9833 28.4359L23.2379 30.4196L24.6727 30.2355L24.4182 28.2517ZM20.3049 29.5453L19.1601 30.4297L20.3828 32.0124L21.5276 31.128L20.3049 29.5453ZM14.8399 30.4297L13.6951 29.5453L12.4724 31.128L13.6172 32.0124L14.8399 30.4297ZM11.0167 28.4359L9.58184 28.2517L9.32726 30.2355L10.7621 30.4196L11.0167 28.4359ZM6.52701 25.1969L6.34287 23.7621L4.35914 24.0166L4.54327 25.4515L6.52701 25.1969ZM5.23342 21.0836L4.34904 19.9388L2.76632 21.1615L3.65069 22.3063L5.23342 21.0836ZM4.34904 15.6186L5.23342 14.4738L3.65069 13.2512L2.76632 14.3959L4.34904 15.6186ZM6.34287 11.7954L6.52701 10.3606L4.54327 10.106L4.35914 11.5408L6.34287 11.7954ZM9.58184 7.30573L11.0167 7.12159L10.7621 5.13786L9.32726 5.322L9.58184 7.30573ZM13.6951 6.01214L14.8399 5.12776L13.6172 3.54504L12.4724 4.42941L13.6951 6.01214ZM11.0167 7.12159C11.4406 7.06719 11.7598 7.02914 12.0704 6.93759L11.5048 5.01921C11.3822 5.05536 11.2471 5.07562 10.7621 5.13786L11.0167 7.12159ZM12.4724 4.42941C12.0855 4.72833 11.9756 4.80958 11.8633 4.87072L12.8199 6.62711C13.1043 6.47226 13.3569 6.27342 13.6951 6.01214L12.4724 4.42941ZM12.0704 6.93759C12.3305 6.86091 12.5818 6.75683 12.8199 6.62711L11.8633 4.87072C11.7494 4.93276 11.6293 4.98254 11.5048 5.01921L12.0704 6.93759ZM6.52701 10.3606C6.69821 9.02651 6.76517 8.65211 6.92369 8.37672L5.19033 7.37898C4.78366 8.08549 4.6911 8.95407 4.54327 10.106L6.52701 10.3606ZM9.32726 5.322C8.17535 5.46982 7.30677 5.56238 6.60026 5.96905L7.598 7.70241C7.87339 7.54389 8.24779 7.47693 9.58184 7.30573L9.32726 5.322ZM6.92369 8.37672C7.08504 8.0964 7.31768 7.86376 7.598 7.70241L6.60026 5.96905C6.01414 6.30643 5.52771 6.79286 5.19033 7.37898L6.92369 8.37672ZM5.23342 14.4738C5.4947 14.1356 5.69354 13.883 5.84839 13.5987L4.092 12.6421C4.03086 12.7543 3.94961 12.8642 3.65069 13.2512L5.23342 14.4738ZM4.35914 11.5408C4.2969 12.0258 4.27663 12.161 4.24049 12.2836L6.15887 12.8491C6.25041 12.5386 6.28847 12.2193 6.34287 11.7954L4.35914 11.5408ZM5.84839 13.5987C5.97811 13.3605 6.08218 13.1092 6.15887 12.8491L4.24049 12.2836C4.20382 12.408 4.15404 12.5281 4.092 12.6421L5.84839 13.5987ZM4.34904 19.9388C3.52678 18.8744 3.30939 18.5624 3.22675 18.2555L1.29558 18.7757C1.50759 19.5628 2.05633 20.2425 2.76632 21.1615L4.34904 19.9388ZM2.76632 14.3959C2.05633 15.315 1.50759 15.9946 1.29558 16.7818L3.22675 17.3019C3.30939 16.9951 3.52678 16.683 4.34904 15.6186L2.76632 14.3959ZM3.22675 18.2555C3.14263 17.9432 3.14263 17.6142 3.22675 17.3019L1.29558 16.7818C1.11969 17.4348 1.11969 18.1227 1.29558 18.7757L3.22675 18.2555ZM6.34287 23.7621C6.28847 23.3381 6.25041 23.0189 6.15887 22.7084L4.24049 23.2739C4.27663 23.3965 4.2969 23.5317 4.35914 24.0166L6.34287 23.7621ZM3.65069 22.3063C3.94961 22.6932 4.03086 22.8031 4.092 22.9154L5.84839 21.9588C5.69354 21.6745 5.4947 21.4218 5.23342 21.0836L3.65069 22.3063ZM6.15887 22.7084C6.08218 22.4482 5.97811 22.197 5.84839 21.9588L4.092 22.9154C4.15404 23.0293 4.20382 23.1495 4.24049 23.2739L6.15887 22.7084ZM9.58184 28.2517C8.24779 28.0805 7.87339 28.0136 7.598 27.855L6.60026 29.5884C7.30677 29.9951 8.17535 30.0876 9.32726 30.2355L9.58184 28.2517ZM4.54327 25.4515C4.6911 26.6034 4.78366 27.472 5.19033 28.1785L6.92369 27.1807C6.76517 26.9053 6.69821 26.5309 6.52701 25.1969L4.54327 25.4515ZM7.598 27.855C7.31768 27.6937 7.08504 27.461 6.92369 27.1807L5.19033 28.1785C5.52771 28.7646 6.01414 29.251 6.60026 29.5884L7.598 27.855ZM13.6951 29.5453C13.3569 29.284 13.1043 29.0852 12.8199 28.9303L11.8633 30.6867C11.9756 30.7479 12.0855 30.8291 12.4724 31.128L13.6951 29.5453ZM10.7621 30.4196C11.2471 30.4818 11.3822 30.5021 11.5048 30.5382L12.0704 28.6199C11.7598 28.5283 11.4406 28.4903 11.0167 28.4359L10.7621 30.4196ZM12.8199 28.9303C12.5818 28.8006 12.3305 28.6965 12.0704 28.6199L11.5048 30.5382C11.6293 30.5749 11.7494 30.6247 11.8633 30.6867L12.8199 28.9303ZM19.1601 30.4297C18.0957 31.2519 17.7836 31.4693 17.4768 31.552L17.997 33.4832C18.7841 33.2711 19.4637 32.7224 20.3828 32.0124L19.1601 30.4297ZM13.6172 32.0124C14.5363 32.7224 15.2159 33.2711 16.003 33.4832L16.5232 31.552C16.2164 31.4693 15.9043 31.2519 14.8399 30.4297L13.6172 32.0124ZM17.4768 31.552C17.1645 31.6361 16.8355 31.6361 16.5232 31.552L16.003 33.4832C16.656 33.659 17.344 33.659 17.997 33.4832L17.4768 31.552ZM22.9833 28.4359C22.5594 28.4903 22.2402 28.5283 21.9296 28.6199L22.4952 30.5382C22.6178 30.5021 22.7529 30.4818 23.2379 30.4196L22.9833 28.4359ZM21.5276 31.128C21.9145 30.8291 22.0244 30.7479 22.1367 30.6867L21.1801 28.9303C20.8958 29.0852 20.6431 29.284 20.3049 29.5453L21.5276 31.128ZM21.9296 28.6199C21.6695 28.6965 21.4182 28.8006 21.1801 28.9303L22.1367 30.6867C22.2506 30.6247 22.3708 30.5749 22.4952 30.5382L21.9296 28.6199ZM27.473 25.1969C27.3018 26.5309 27.2348 26.9053 27.0763 27.1807L28.8097 28.1785C29.2163 27.472 29.3089 26.6034 29.4567 25.4515L27.473 25.1969ZM24.6727 30.2355C25.8247 30.0876 26.6932 29.9951 27.3997 29.5884L26.402 27.855C26.1266 28.0136 25.7522 28.0805 24.4182 28.2517L24.6727 30.2355ZM27.0763 27.1807C26.915 27.461 26.6823 27.6937 26.402 27.855L27.3997 29.5884C27.9859 29.251 28.4723 28.7646 28.8097 28.1785L27.0763 27.1807ZM28.7666 21.0836C28.5053 21.4218 28.3065 21.6745 28.1516 21.9588L29.908 22.9154C29.9691 22.8031 30.0504 22.6932 30.3493 22.3063L28.7666 21.0836ZM29.6409 24.0166C29.7031 23.5317 29.7234 23.3965 29.7595 23.2739L27.8411 22.7084C27.7496 23.0189 27.7115 23.3382 27.6571 23.7621L29.6409 24.0166ZM28.1516 21.9588C28.0219 22.197 27.9178 22.4482 27.8411 22.7084L29.7595 23.2739C29.7962 23.1495 29.846 23.0293 29.908 22.9154L28.1516 21.9588ZM29.651 15.6186C30.4732 16.683 30.6906 16.9951 30.7733 17.3019L32.7044 16.7818C32.4924 15.9946 31.9437 15.315 31.2337 14.3959L29.651 15.6186ZM31.2337 21.1615C31.9437 20.2425 32.4924 19.5628 32.7044 18.7757L30.7733 18.2555C30.6906 18.5624 30.4732 18.8744 29.651 19.9388L31.2337 21.1615ZM30.7733 17.3019C30.8574 17.6142 30.8574 17.9432 30.7733 18.2555L32.7044 18.7757C32.8803 18.1227 32.8803 17.4348 32.7044 16.7818L30.7733 17.3019ZM27.6571 11.7954C27.7115 12.2193 27.7496 12.5386 27.8411 12.8491L29.7595 12.2836C29.7234 12.161 29.7031 12.0258 29.6409 11.5408L27.6571 11.7954ZM30.3493 13.2512C30.0504 12.8642 29.9691 12.7543 29.908 12.6421L28.1516 13.5987C28.3065 13.883 28.5053 14.1356 28.7666 14.4738L30.3493 13.2512ZM27.8411 12.8491C27.9178 13.1092 28.0219 13.3605 28.1516 13.5987L29.908 12.6421C29.846 12.5281 29.7962 12.408 29.7595 12.2836L27.8411 12.8491ZM24.4182 7.30573C25.7522 7.47693 26.1266 7.54389 26.402 7.70241L27.3997 5.96905C26.6932 5.56238 25.8247 5.46982 24.6727 5.322L24.4182 7.30573ZM29.4567 10.106C29.3089 8.95408 29.2163 8.08549 28.8097 7.37899L27.0763 8.37672C27.2348 8.65211 27.3018 9.02651 27.473 10.3606L29.4567 10.106ZM26.402 7.70241C26.6823 7.86376 26.915 8.0964 27.0763 8.37672L28.8097 7.37899C28.4723 6.79286 27.9859 6.30643 27.3997 5.96905L26.402 7.70241ZM20.3049 6.01214C20.6431 6.27342 20.8958 6.47226 21.1801 6.62711L22.1367 4.87072C22.0244 4.80958 21.9145 4.72833 21.5276 4.42941L20.3049 6.01214ZM23.2379 5.13786C22.7529 5.07562 22.6178 5.05536 22.4952 5.01921L21.9296 6.93759C22.2402 7.02914 22.5594 7.06719 22.9833 7.12159L23.2379 5.13786ZM21.1801 6.62711C21.4182 6.75683 21.6695 6.86091 21.9296 6.93759L22.4952 5.01921C22.3708 4.98254 22.2506 4.93276 22.1367 4.87072L21.1801 6.62711ZM20.3828 3.54504C19.4637 2.83505 18.7841 2.28631 17.997 2.0743L17.4768 4.00547C17.7836 4.08811 18.0957 4.3055 19.1601 5.12776L20.3828 3.54504ZM14.8399 5.12776C15.9043 4.3055 16.2164 4.08811 16.5232 4.00547L16.003 2.0743C15.2159 2.28631 14.5363 2.83505 13.6172 3.54504L14.8399 5.12776ZM17.997 2.0743C17.344 1.89841 16.656 1.89841 16.003 2.0743L16.5232 4.00547C16.8355 3.92135 17.1645 3.92135 17.4768 4.00547L17.997 2.0743Z" fill="white"/>
</svg>
