<svg width="14" height="15" viewBox="0 0 14 15" fill="none" xmlns="http://www.w3.org/2000/svg">
<g clip-path="url(#clip0_121_3991)">
<path d="M12.8333 7.77865C12.8333 11.0003 10.2216 13.612 6.99996 13.612M12.8333 7.77865C12.8333 4.55698 10.2216 1.94531 6.99996 1.94531M12.8333 7.77865H1.16663M6.99996 13.612C3.7783 13.612 1.16663 11.0003 1.16663 7.77865M6.99996 13.612C8.45904 12.0146 9.28823 9.94163 9.33329 7.77865C9.28823 5.61567 8.45904 3.54268 6.99996 1.94531M6.99996 13.612C5.54088 12.0146 4.71169 9.94163 4.66663 7.77865C4.71169 5.61567 5.54088 3.54268 6.99996 1.94531M1.16663 7.77865C1.16663 4.55698 3.7783 1.94531 6.99996 1.94531" stroke="white" stroke-width="1.2" stroke-linecap="round" stroke-linejoin="round"/>
</g>
<defs>
<clipPath id="clip0_121_3991">
<rect width="14" height="14" fill="white" transform="translate(0 0.77832)"/>
</clipPath>
</defs>
</svg>
