<svg width="14" height="13" viewBox="0 0 14 13" fill="none" xmlns="http://www.w3.org/2000/svg">
<path d="M10.3486 0.230469H3.74787C1.92431 0.230469 0.440796 1.71398 0.440796 3.53755V9.57623C0.440796 11.3998 1.92431 12.8833 3.74787 12.8833H10.3486C12.1721 12.8833 13.6557 11.3998 13.6557 9.57623V3.53755C13.6557 1.71398 12.1721 0.230469 10.3486 0.230469ZM1.60743 3.53755C1.60743 2.35746 2.56779 1.3971 3.74787 1.3971H10.3486C11.5287 1.3971 12.489 2.35746 12.489 3.53755V9.57623C12.489 10.7563 11.5287 11.7167 10.3486 11.7167H3.74787C2.56779 11.7167 1.60743 10.7563 1.60743 9.57623V3.53755Z" fill="white"/>
<path d="M7.04856 9.63275C8.74432 9.63275 10.1247 8.25312 10.1247 6.55661C10.1247 4.8601 8.74507 3.48047 7.04856 3.48047C5.35205 3.48047 3.97241 4.8601 3.97241 6.55661C3.97241 8.25312 5.35205 9.63275 7.04856 9.63275ZM7.04856 4.64785C8.10159 4.64785 8.95807 5.50432 8.95807 6.55736C8.95807 7.61039 8.10159 8.46687 7.04856 8.46687C5.99552 8.46687 5.13905 7.61039 5.13905 6.55736C5.13905 5.50432 5.99552 4.64785 7.04856 4.64785Z" fill="white"/>
<path d="M10.4094 3.97699C10.866 3.97699 11.2382 3.60555 11.2382 3.14816C11.2382 2.69078 10.8668 2.31934 10.4094 2.31934C9.952 2.31934 9.58057 2.69078 9.58057 3.14816C9.58057 3.60555 9.952 3.97699 10.4094 3.97699Z" fill="white"/>
</svg>
