<svg width="34" height="35" viewBox="0 0 34 35" fill="none" xmlns="http://www.w3.org/2000/svg">
<path fill-rule="evenodd" clip-rule="evenodd" d="M11.9 6.44531H22.1C25.2736 6.44531 26.8605 6.44531 28.0726 7.06294C29.1389 7.60622 30.0058 8.47311 30.549 9.53937C31.1667 10.7515 31.1667 12.3383 31.1667 15.512V20.0453C31.1667 23.2189 31.1667 24.8058 30.549 26.0179C30.0058 27.0842 29.1389 27.9511 28.0726 28.4943C26.8605 29.112 25.2736 29.112 22.1 29.112H11.9C8.72638 29.112 7.13956 29.112 5.9274 28.4943C4.86115 27.9511 3.99426 27.0842 3.45097 26.0179C2.83334 24.8058 2.83334 23.2189 2.83334 20.0453V15.512C2.83334 12.3383 2.83334 10.7515 3.45097 9.53937C3.99426 8.47311 4.86115 7.60622 5.9274 7.06294C7.13956 6.44531 8.72638 6.44531 11.9 6.44531ZM13.4583 22.0156V13.5416C13.4583 12.3576 14.8394 11.6886 15.7933 12.4105L21.3922 16.6475C22.1471 17.2188 22.1471 18.3385 21.3922 18.9097L15.7933 23.1467C14.8394 23.8686 13.4583 23.1996 13.4583 22.0156Z" stroke="white" stroke-width="2" stroke-linecap="round"/>
</svg>
