<svg width="1052" height="67" viewBox="0 0 1052 67" fill="none" xmlns="http://www.w3.org/2000/svg">
<g opacity="0.8">
<path fill-rule="evenodd" clip-rule="evenodd" d="M584 66.8908C589.59 57.569 598.958 47.2554 611.305 47.6917C612.104 41.0276 615.666 30.5554 621.41 26.3638C624.164 24.3408 627.246 23.3491 630.327 22.3574C637.668 19.9905 645.04 17.6238 648.101 1.42621C648.152 1.20143 648.305 0.77832 648.5 0.77832V66.8908H584ZM648.5 66.8908V0.77832C648.695 0.77832 648.848 1.20143 648.899 1.42621C651.96 17.6238 659.332 19.9905 666.673 22.3574C669.754 23.3491 672.836 24.3408 675.59 26.3638C681.334 30.5554 684.896 41.0276 685.695 47.6917C698.042 47.2554 707.41 57.569 713 66.8908L648.5 66.8908Z" fill="#1B2262"/>
<path fill-rule="evenodd" clip-rule="evenodd" d="M210 66.8908C215.59 57.569 224.958 47.2554 237.305 47.6917C238.104 41.0276 241.666 30.5554 247.41 26.3638C250.164 24.3408 253.246 23.3491 256.327 22.3574C263.668 19.9905 271.04 17.6238 274.101 1.42621C274.152 1.20143 274.305 0.77832 274.5 0.77832V66.8908H210ZM274.5 66.8908V0.77832C274.695 0.77832 274.848 1.20143 274.899 1.42621C277.96 17.6238 285.332 19.9905 292.673 22.3574C295.754 23.3491 298.836 24.3408 301.59 26.3638C307.334 30.5554 310.896 41.0276 311.695 47.6917C324.042 47.2554 333.41 57.569 339 66.8908L274.5 66.8908Z" fill="#1B2262"/>
<path fill-rule="evenodd" clip-rule="evenodd" d="M842 66.8908C847.59 57.569 856.958 47.2554 869.305 47.6917C870.104 41.0276 873.666 30.5554 879.41 26.3638C882.164 24.3408 885.246 23.3491 888.327 22.3574C895.668 19.9905 903.04 17.6238 906.101 1.42621C906.152 1.20143 906.305 0.77832 906.5 0.77832V66.8908H842ZM906.5 66.8908V0.77832C906.695 0.77832 906.848 1.20143 906.899 1.42621C909.96 17.6238 917.332 19.9905 924.673 22.3574C927.754 23.3491 930.836 24.3408 933.59 26.3638C939.334 30.5554 942.896 41.0276 943.695 47.6917C956.042 47.2554 965.41 57.569 971 66.8908L906.5 66.8908Z" fill="#1B2262"/>
<path fill-rule="evenodd" clip-rule="evenodd" d="M81 66.8908C86.59 57.569 95.9579 47.2554 108.305 47.6917C109.104 41.0276 112.666 30.5554 118.41 26.3638C121.164 24.3408 124.246 23.3491 127.327 22.3574C134.668 19.9905 142.04 17.6238 145.101 1.42621C145.152 1.20143 145.305 0.77832 145.5 0.77832V66.8908H81ZM145.5 66.8908V0.77832C145.695 0.77832 145.848 1.20143 145.899 1.42621C148.96 17.6238 156.332 19.9905 163.673 22.3574C166.754 23.3491 169.836 24.3408 172.59 26.3638C178.334 30.5554 181.896 41.0276 182.695 47.6917C195.042 47.2554 204.41 57.569 210 66.8908L145.5 66.8908Z" fill="#1B2262"/>
<path fill-rule="evenodd" clip-rule="evenodd" d="M713 66.8908C718.59 57.569 727.958 47.2554 740.305 47.6917C741.104 41.0276 744.666 30.5554 750.41 26.3638C753.164 24.3408 756.246 23.3491 759.327 22.3574C766.668 19.9905 774.04 17.6238 777.101 1.42621C777.152 1.20143 777.305 0.77832 777.5 0.77832V66.8908H713ZM777.5 66.8908V0.77832C777.695 0.77832 777.848 1.20143 777.899 1.42621C780.96 17.6238 788.332 19.9905 795.673 22.3574C798.754 23.3491 801.836 24.3408 804.59 26.3638C810.334 30.5554 813.896 41.0276 814.695 47.6917C827.042 47.2554 836.41 57.569 842 66.8908L777.5 66.8908Z" fill="#1B2262"/>
<path fill-rule="evenodd" clip-rule="evenodd" d="M339 66.8908C344.59 57.569 353.958 47.2554 366.305 47.6917C367.104 41.0276 370.666 30.5554 376.41 26.3638C379.164 24.3408 382.246 23.3491 385.327 22.3574C392.668 19.9905 400.04 17.6238 403.101 1.42621C403.152 1.20143 403.305 0.77832 403.5 0.77832V66.8908H339ZM403.5 66.8908V0.77832C403.695 0.77832 403.848 1.20143 403.899 1.42621C406.96 17.6238 414.332 19.9905 421.673 22.3574C424.754 23.3491 427.836 24.3408 430.59 26.3638C436.334 30.5554 439.896 41.0276 440.695 47.6917C453.042 47.2554 462.41 57.569 468 66.8908L403.5 66.8908Z" fill="#1B2262"/>
<path fill-rule="evenodd" clip-rule="evenodd" d="M971 66.8906C974.51 60.9686 980.392 54.4166 988.145 54.6938C988.646 50.4602 990.884 43.8074 994.49 41.1446C996.219 39.8594 998.154 39.2294 1000.09 38.5994C1004.7 37.0958 1009.33 35.5922 1011.25 25.3022C1011.28 25.1594 1011.38 24.8906 1011.5 24.8906V66.8906H971ZM1011.5 66.8906V24.8906C1011.62 24.8906 1011.72 25.1594 1011.75 25.3022C1013.67 35.5922 1018.3 37.0958 1022.91 38.5994C1024.85 39.2294 1026.78 39.8594 1028.51 41.1446C1032.12 43.8074 1034.35 50.4602 1034.85 54.6938C1042.61 54.4166 1048.49 60.9686 1052 66.8906H1011.5Z" fill="#1B2262"/>
<path fill-rule="evenodd" clip-rule="evenodd" d="M0 66.8906C3.51 60.9686 9.39217 54.4166 17.145 54.6938C17.6465 50.4602 19.8836 43.8074 23.49 41.1446C25.2193 39.8594 27.1543 39.2294 29.0893 38.5994C33.6986 37.0958 38.3271 35.5922 40.2493 25.3022C40.2814 25.1594 40.3779 24.8906 40.5 24.8906V66.8906H0ZM40.5 66.8906V24.8906C40.6221 24.8906 40.7186 25.1594 40.7507 25.3022C42.6729 35.5922 47.3014 37.0958 51.9107 38.5994C53.8457 39.2294 55.7807 39.8594 57.51 41.1446C61.1164 43.8074 63.3535 50.4602 63.855 54.6938C71.6078 54.4166 77.49 60.9686 81 66.8906H40.5Z" fill="#1B2262"/>
</g>
</svg>
