<svg width="34" height="35" viewBox="0 0 34 35" fill="none" xmlns="http://www.w3.org/2000/svg">
<path d="M11.3334 19.6113C10.7811 19.6113 10.3334 20.059 10.3334 20.6113C10.3334 21.1636 10.7811 21.6113 11.3334 21.6113V19.6113ZM14.1667 21.6113C14.719 21.6113 15.1667 21.1636 15.1667 20.6113C15.1667 20.059 14.719 19.6113 14.1667 19.6113V21.6113ZM11.3334 13.9447C10.7811 13.9447 10.3334 14.3924 10.3334 14.9447C10.3334 15.4969 10.7811 15.9447 11.3334 15.9447V13.9447ZM19.8334 15.9447C20.3856 15.9447 20.8334 15.4969 20.8334 14.9447C20.8334 14.3924 20.3856 13.9447 19.8334 13.9447V15.9447ZM11.3334 8.27799C10.7811 8.27799 10.3334 8.72571 10.3334 9.27799C10.3334 9.83028 10.7811 10.278 11.3334 10.278V8.27799ZM19.8334 10.278C20.3856 10.278 20.8334 9.83028 20.8334 9.27799C20.8334 8.72571 20.3856 8.27799 19.8334 8.27799V10.278ZM24.5 17.0697C24.5 17.6219 24.9477 18.0697 25.5 18.0697C26.0523 18.0697 26.5 17.6219 26.5 17.0697H24.5ZM14.1667 30.1113C14.719 30.1113 15.1667 29.6636 15.1667 29.1113C15.1667 28.559 14.719 28.1113 14.1667 28.1113V30.1113ZM7.19393 28.7923L7.6549 27.9049L7.6549 27.9049L7.19393 28.7923ZM5.98568 27.5841L5.09827 28.0451L5.09827 28.0451L5.98568 27.5841ZM23.9728 3.93032L23.5118 4.81774L23.5118 4.81774L23.9728 3.93032ZM25.181 5.13857L24.2936 5.59954V5.59954L25.181 5.13857ZM7.19393 3.93032L6.73295 3.04291L7.19393 3.93032ZM5.98568 5.13857L5.09827 4.67759L5.98568 5.13857ZM29.0405 24.1518C29.431 23.7612 29.431 23.1281 29.0405 22.7376C28.6499 22.347 28.0168 22.347 27.6262 22.7376L29.0405 24.1518ZM22.1658 28.6105L21.4587 29.3176H21.4587L22.1658 28.6105ZM20.5405 25.5709C20.1499 25.1804 19.5168 25.1804 19.1262 25.5709C18.7357 25.9614 18.7357 26.5946 19.1262 26.9851L20.5405 25.5709ZM11.3334 21.6113H14.1667V19.6113H11.3334V21.6113ZM11.3334 15.9447H19.8334V13.9447H11.3334V15.9447ZM11.3334 10.278H19.8334V8.27799H11.3334V10.278ZM10.2284 4.61133H20.9384V2.61133H10.2284V4.61133ZM24.5 8.17299V17.0697H26.5V8.17299H24.5ZM14.1667 28.1113H10.2284V30.1113H14.1667V28.1113ZM6.66669 24.5497V8.173H4.66669V24.5497H6.66669ZM10.2284 28.1113C9.40479 28.1113 8.84827 28.1105 8.4191 28.0749C8.00191 28.0402 7.79542 27.9779 7.6549 27.9049L6.73295 29.6797C7.20652 29.9257 7.71047 30.0229 8.25358 30.068C8.78472 30.1121 9.43836 30.1113 10.2284 30.1113V28.1113ZM4.66669 24.5497C4.66669 25.3397 4.66588 25.9933 4.70999 26.5244C4.75509 27.0675 4.85227 27.5715 5.09827 28.0451L6.8731 27.1231C6.8001 26.9826 6.73778 26.7761 6.70313 26.3589C6.66749 25.9297 6.66669 25.3732 6.66669 24.5497H4.66669ZM7.6549 27.9049C7.32005 27.731 7.04703 27.458 6.8731 27.1231L5.09827 28.0451C5.46196 28.7452 6.03282 29.3161 6.73295 29.6797L7.6549 27.9049ZM20.9384 4.61133C21.7619 4.61133 22.3184 4.61213 22.7476 4.64777C23.1648 4.68242 23.3713 4.74474 23.5118 4.81774L24.4338 3.04291C23.9602 2.79691 23.4562 2.69974 22.9131 2.65463C22.382 2.61052 21.7283 2.61133 20.9384 2.61133V4.61133ZM26.5 8.17299C26.5 7.383 26.5008 6.72936 26.4567 6.19822C26.4116 5.65511 26.3144 5.15117 26.0684 4.67759L24.2936 5.59954C24.3666 5.74006 24.4289 5.94655 24.4636 6.36374C24.4992 6.79291 24.5 7.34943 24.5 8.17299H26.5ZM23.5118 4.81774C23.8467 4.99168 24.1197 5.2647 24.2936 5.59954L26.0684 4.67759C25.7048 3.97746 25.1339 3.4066 24.4338 3.04291L23.5118 4.81774ZM10.2284 2.61133C9.43836 2.61133 8.78472 2.61052 8.25358 2.65463C7.71047 2.69974 7.20653 2.79691 6.73295 3.04291L7.6549 4.81774C7.79542 4.74474 8.00191 4.68242 8.4191 4.64777C8.84827 4.61213 9.40479 4.61133 10.2284 4.61133V2.61133ZM6.66669 8.173C6.66669 7.34943 6.66749 6.79291 6.70313 6.36374C6.73778 5.94655 6.8001 5.74006 6.8731 5.59954L5.09827 4.67759C4.85227 5.15117 4.75509 5.65511 4.70999 6.19822C4.66588 6.72936 4.66669 7.383 4.66669 8.173H6.66669ZM6.73295 3.04291C6.03282 3.4066 5.46196 3.97746 5.09827 4.67759L6.8731 5.59954C7.04703 5.2647 7.32005 4.99168 7.6549 4.81774L6.73295 3.04291ZM23.8747 29.3176L29.0405 24.1518L27.6262 22.7376L22.4604 27.9034L23.8747 29.3176ZM22.8729 27.9034L20.5405 25.5709L19.1262 26.9851L21.4587 29.3176L22.8729 27.9034ZM22.4604 27.9034C22.5744 27.7894 22.759 27.7894 22.8729 27.9034L21.4587 29.3176C22.1259 29.9847 23.2075 29.9847 23.8747 29.3176L22.4604 27.9034Z" fill="white"/>
</svg>
