<svg width="69" height="36" viewBox="0 0 69 36" fill="none" xmlns="http://www.w3.org/2000/svg">
<path fill-rule="evenodd" clip-rule="evenodd" d="M0 0.77832C2.99 5.71332 8.00074 11.1733 14.605 10.9423C15.0322 14.4703 16.9379 20.0143 20.01 22.2333C21.4831 23.3043 23.1314 23.8294 24.7798 24.3544C28.7062 25.6074 32.649 26.8603 34.2864 35.4353C34.3138 35.5543 34.396 35.7783 34.5 35.7783V0.77832H0ZM34.5 0.77832V35.7783C34.604 35.7783 34.6862 35.5543 34.7136 35.4353C36.351 26.8603 40.2938 25.6074 44.2202 24.3544C45.8686 23.8294 47.5169 23.3043 48.99 22.2333C52.0621 20.0143 53.9678 14.4703 54.395 10.9423C60.9993 11.1733 66.01 5.71332 69 0.77832L34.5 0.77832Z" fill="#2C3370"/>
</svg>
