<svg width="85" height="21" viewBox="0 0 85 21" fill="none" xmlns="http://www.w3.org/2000/svg">
<path fill-rule="evenodd" clip-rule="evenodd" d="M2.09808e-05 20.125C1.46444 19.253 3.08466 17.7917 3.01611 15.8657C4.06301 15.7411 5.70815 15.1853 6.36662 14.2894C6.68443 13.8598 6.84023 13.3791 6.99602 12.8984C7.36784 11.7533 7.73964 10.6034 10.2842 10.1259C10.3195 10.1179 10.386 10.0939 10.386 10.0636L2.09808e-05 10.0636L2.09808e-05 20.125ZM2.09808e-05 10.0636L10.386 10.0636C10.386 10.0333 10.3195 10.0093 10.2842 10.0013C7.73964 9.52379 7.36784 8.37392 6.99602 7.22884C6.84023 6.74812 6.68443 6.26742 6.36662 5.83781C5.70815 4.94187 4.06301 4.3861 3.01611 4.26153C3.08466 2.33549 1.46444 0.874182 2.09808e-05 0.00219345L2.09808e-05 10.0636Z" fill="#E4E4E4"/>
<path d="M9 10.002L83.9998 11.0155" stroke="url(#paint0_linear_0_1)" stroke-linecap="round"/>
<defs>
<linearGradient id="paint0_linear_0_1" x1="8.98641" y1="11.0019" x2="83.9862" y2="12.0154" gradientUnits="userSpaceOnUse">
<stop stop-color="white"/>
<stop offset="1" stop-color="#999999" stop-opacity="0"/>
</linearGradient>
</defs>
</svg>
