<svg width="18" height="17" viewBox="0 0 18 17" fill="none" xmlns="http://www.w3.org/2000/svg">
<path d="M13.2378 -0.000976562H4.76279C2.42142 -0.000976562 0.516663 1.90378 0.516663 4.24515V11.9985C0.516663 14.3399 2.42142 16.2446 4.76279 16.2446H13.2378C15.5791 16.2446 17.4839 14.3399 17.4839 11.9985V4.24515C17.4839 1.90378 15.5791 -0.000976562 13.2378 -0.000976562ZM2.01456 4.24515C2.01456 2.72998 3.24762 1.49692 4.76279 1.49692H13.2378C14.7529 1.49692 15.986 2.72998 15.986 4.24515V11.9985C15.986 13.5137 14.7529 14.7467 13.2378 14.7467H4.76279C3.24762 14.7467 2.01456 13.5137 2.01456 11.9985V4.24515Z" fill="white"/>
<path d="M9.0004 12.0701C11.1777 12.0701 12.95 10.2987 12.95 8.12051C12.95 5.94227 11.1786 4.1709 9.0004 4.1709C6.82216 4.1709 5.05078 5.94227 5.05078 8.12051C5.05078 10.2987 6.82216 12.0701 9.0004 12.0701ZM9.0004 5.66976C10.3524 5.66976 11.4521 6.76943 11.4521 8.12147C11.4521 9.47351 10.3524 10.5732 9.0004 10.5732C7.64836 10.5732 6.54868 9.47351 6.54868 8.12147C6.54868 6.76943 7.64836 5.66976 9.0004 5.66976Z" fill="white"/>
<path d="M13.3158 4.80901C13.9021 4.80901 14.3799 4.3321 14.3799 3.74484C14.3799 3.15758 13.903 2.68066 13.3158 2.68066C12.7285 2.68066 12.2516 3.15758 12.2516 3.74484C12.2516 4.3321 12.7285 4.80901 13.3158 4.80901Z" fill="white"/>
</svg>
