<svg width="14" height="14" viewBox="0 0 14 14" fill="none" xmlns="http://www.w3.org/2000/svg">
<path d="M0.490915 2.73181C0.16305 2.42749 0 2.0508 0 1.6026C0 1.1544 0.163922 0.761134 0.490915 0.45594C0.818779 0.151619 1.24082 -0.000976562 1.7579 -0.000976562C2.27499 -0.000976562 2.68047 0.151619 3.00746 0.45594C3.33532 0.760262 3.49837 1.14306 3.49837 1.6026C3.49837 2.06213 3.33445 2.42749 3.00746 2.73181C2.67959 3.03613 2.26365 3.18872 1.7579 3.18872C1.25216 3.18872 0.818779 3.03613 0.490915 2.73181ZM3.22284 4.47752V13.8077H0.274665V4.47752H3.22284Z" fill="#FEFFFC"/>
<path d="M13.037 5.39892C13.6797 6.0965 14.0006 7.05394 14.0006 8.27297V13.6426H11.2007V8.65141C11.2007 8.03666 11.0411 7.55881 10.7228 7.21874C10.4045 6.87867 9.97553 6.70776 9.43839 6.70776C8.90125 6.70776 8.47222 6.87779 8.15394 7.21874C7.83567 7.55881 7.6761 8.03666 7.6761 8.65141V13.6426H4.85962V4.45107H7.6761V5.6701C7.96124 5.26376 8.3458 4.94288 8.82888 4.70657C9.31195 4.47026 9.85519 4.35254 10.4595 4.35254C11.5355 4.35254 12.3953 4.70133 13.037 5.39804V5.39892Z" fill="#FEFFFC"/>
</svg>
