<svg width="18" height="20" viewBox="0 0 18 20" fill="none" xmlns="http://www.w3.org/2000/svg">
<path d="M16.5 8.33496C16.5 14.1683 9 19.1683 9 19.1683C9 19.1683 1.5 14.1683 1.5 8.33496C1.5 6.34584 2.29018 4.43818 3.6967 3.03166C5.10322 1.62514 7.01088 0.834961 9 0.834961C10.9891 0.834961 12.8968 1.62514 14.3033 3.03166C15.7098 4.43818 16.5 6.34584 16.5 8.33496Z" stroke="#FFC570" stroke-width="1.5" stroke-linecap="round" stroke-linejoin="round"/>
<path d="M9 10.835C10.3807 10.835 11.5 9.71567 11.5 8.33496C11.5 6.95425 10.3807 5.83496 9 5.83496C7.61929 5.83496 6.5 6.95425 6.5 8.33496C6.5 9.71567 7.61929 10.835 9 10.835Z" stroke="#FFC570" stroke-width="1.5" stroke-linecap="round" stroke-linejoin="round"/>
</svg>
