<svg width="261" height="55" viewBox="0 0 261 55" fill="none" xmlns="http://www.w3.org/2000/svg">
<path fill-rule="evenodd" clip-rule="evenodd" d="M199.996 20.491C198.017 23.1144 196.572 22.8678 195.549 23.8992C196.321 23.9697 197.1 23.884 197.839 23.6469C198.579 23.4099 199.264 23.0263 199.854 22.5188C200.444 22.0113 200.928 21.39 201.277 20.6914C201.626 19.9928 201.833 19.231 201.886 18.4506C201.642 17.9125 200.685 17.9573 199.663 17.2846C199.863 15.3787 201.597 14.863 201.33 13.002C200.399 13.6932 199.628 14.5809 199.071 15.6031C198.514 16.6254 198.185 17.7578 198.106 18.9215C198.484 20.0202 199.24 19.8408 199.996 20.491Z" fill="#FAC67E"/>
<path fill-rule="evenodd" clip-rule="evenodd" d="M221.766 39.3934C219.792 38.7157 217.77 38.191 215.718 37.8238C213.494 38.1377 212.938 40.6266 211.27 41.7253C209.603 42.824 205.622 42.7343 205.022 37.9359C204.701 34.4828 204.934 31.0001 205.711 27.6216C206.045 26.0969 207.179 25.6485 208.202 24.617C214.161 19.5272 231.216 10.1098 235.197 4.59385C235.641 4.01087 236.931 0.512978 236.397 0.109375C232.929 4.4369 226.013 8.67473 219.631 12.8004C214.647 15.6223 210.21 19.3292 206.534 23.7426C205.645 25.2679 204.9 26.8745 204.31 28.541C203.108 32.5564 202.604 36.7516 202.821 40.9405C202.821 42.9586 202.821 45.156 201.331 46.3443C200.966 46.6515 200.53 46.86 200.063 46.9502C199.596 47.0404 199.114 47.0094 198.662 46.8601C197.573 46.4564 197.373 46.0528 195.972 46.4564C193.103 47.1515 190.235 52.062 189.924 54.2594C190.235 54.2594 190.324 54.0576 190.724 53.5643C191.341 52.6104 192.295 51.929 193.392 51.6584C195.483 51.2548 195.483 53.1607 198.173 52.1517C199.523 51.5939 200.687 50.6607 201.531 49.4611C202.303 48.1646 203.001 46.8245 203.621 45.4474C204.021 45.851 204.822 48.6538 207.601 47.9587C209.825 47.3533 211.27 43.9451 212.36 42.7567C213.116 41.972 213.427 42.241 214.472 42.7567C216.641 44.0462 219.033 44.9062 221.521 45.2905C234.73 47.5327 243.758 41.0302 255.12 35.7385C257.099 34.8417 257.9 35.2453 259.19 33.0479C259.616 32.2514 259.952 31.409 260.19 30.5366V29.7293C257.497 30.4875 254.933 31.6516 252.585 33.1824C243.424 38.2947 231.972 41.8823 221.766 39.3934Z" fill="#FAC67E"/>
<path fill-rule="evenodd" clip-rule="evenodd" d="M172.246 44.3932C172.246 44.3932 172.246 44.595 171.957 44.3932C171.957 44.1017 171.957 44.3932 172.157 44.1914C173.535 43.0031 175.025 39.1016 170.267 38.7876C167.576 38.5858 164.419 39.9984 163.818 42.4873C165.708 42.4873 167.287 42.8013 167.687 44.5054C166.768 45.1484 165.7 45.5419 164.586 45.6479C163.472 45.7539 162.35 45.5689 161.328 45.1108C159.549 43.9896 159.26 41.5904 159.349 38.8998C159.39 36.3558 159.59 33.817 159.949 31.2986C159.949 30.0878 160.238 28.8769 160.349 27.5764C160.349 26.6795 160.927 24.4822 160.349 23.9889C160.038 24.684 159.949 25.5809 159.638 26.2311C158.259 30.7156 158.459 28.2267 157.859 33.4287C157.328 37.1407 157.097 40.8901 157.17 44.6399C157.37 47.8463 158.148 51.6581 162.217 51.3666C163.646 51.0357 164.992 50.4108 166.171 49.5311C167.349 48.6515 168.335 47.5359 169.066 46.2543C172.757 47.9584 175.426 45.2453 176.515 41.3438C176.795 42.0241 177.161 42.6648 177.605 43.2497C178.063 43.7589 178.646 44.1378 179.295 44.3484C180.161 44.5652 181.076 44.4618 181.874 44.0569C184.253 42.6443 184.565 39.9536 186.455 39.9536C187.833 39.9536 188.523 41.142 190.413 38.7428C191.102 37.8459 192.103 35.94 192.992 35.5364C194.682 34.6395 195.883 37.0387 197.439 35.357C198.018 34.5498 199.418 32.8457 198.907 31.2537C198.729 30.4465 197.729 29.5496 197.128 28.6303C196.873 28.3724 196.67 28.068 196.528 27.7334C195.753 28.7303 195.152 29.8524 194.749 31.0519C194.414 31.083 194.093 31.2004 193.817 31.3928C193.54 31.5852 193.318 31.8462 193.17 32.1506C192.058 33.6529 190.946 36.4557 189.279 36.6351C188.389 36.6351 187.9 36.0297 187.211 36.2315C186.555 36.4385 185.99 36.8659 185.61 37.4423C185.076 37.9593 184.431 38.3455 183.725 38.571C183.02 38.7965 182.272 38.8553 181.541 38.7428C178.272 38.3392 177.983 34.4377 178.183 31.0295C178.183 29.3254 178.383 27.6213 178.561 25.9396C178.761 24.8185 179.361 21.7242 178.761 20.917C178.399 21.8287 178.101 22.7653 177.872 23.7198C177.556 24.643 177.193 25.5487 176.782 26.4329C175.781 29.4375 176.182 37.9356 175.692 40.3348C175.136 42.151 173.936 44.0345 172.246 44.3932Z" fill="#FAC67E"/>
<path fill-rule="evenodd" clip-rule="evenodd" d="M140.359 48.2955C132.932 48.2955 132.198 41.8379 134.422 36.2099C134.889 34.9766 136.468 32.2635 136.179 31.7254L135.912 32.0169C134.8 33.9676 133.866 35.5596 132.932 37.6225C131.889 40.0535 131.323 42.6652 131.265 45.3134C131.265 49.7978 133.31 53.1836 137.202 53.6545C149.854 54.8653 155.991 40.4477 155.791 29.3935V25.7386C155.791 24.7072 156.08 23.9448 156.08 23.0928C155.702 23.2946 155.324 24.326 155.146 24.7072C153.926 26.5357 153.456 28.7699 153.834 30.9406C154.123 39.5732 149.654 48.2955 140.359 48.2955Z" fill="#FAC67E"/>
<path fill-rule="evenodd" clip-rule="evenodd" d="M240.934 26.0294C240.423 24.7289 239.133 24.415 237.843 23.7872C237.201 24.4934 236.607 25.2425 236.064 26.0294C235.753 26.433 235.464 26.7469 235.175 27.1505C234.886 27.5541 234.663 27.9353 234.285 28.3389C235.39 28.7813 236.424 29.3857 237.354 30.1327C238.236 29.9937 239.058 29.5966 239.718 28.9907C240.378 28.3848 240.847 27.5968 241.067 26.7245C242.02 27.0943 242.895 27.642 243.647 28.3389C246.026 28.3389 249.606 23.6302 244.136 22.1279C243.758 22.5315 242.268 24.3702 241.757 25.0204C241.511 25.379 241.235 25.7165 240.934 26.0294Z" fill="#FAC67E"/>
<path fill-rule="evenodd" clip-rule="evenodd" d="M140.692 33.1822C142.054 33.816 143.325 34.6304 144.472 35.6038C144.577 35.7902 144.712 35.9571 144.873 36.0971C145.639 35.6278 146.299 35.0025 146.812 34.2612C147.325 33.52 147.68 32.679 147.852 31.792C147.852 30.9848 146.651 30.0879 146.251 29.6843C145.501 29.1747 144.705 28.7392 143.872 28.3838C142.711 29.9125 141.648 31.5153 140.692 33.1822Z" fill="#FAC67E"/>
<path fill-rule="evenodd" clip-rule="evenodd" d="M213.094 54.1475C214.357 53.296 215.272 52.0144 215.674 50.5375C215.874 48.9455 213.984 47.645 212.694 47.3311C212.376 47.6869 212.079 48.0613 211.805 48.4522C211.315 49.1473 209.581 51.2326 209.314 51.7483C210.059 51.9625 210.764 52.2956 211.404 52.7349C212.003 53.1607 212.568 53.633 213.094 54.1475Z" fill="#FAC67E"/>
<path fill-rule="evenodd" clip-rule="evenodd" d="M164.708 28.227C165.777 28.6488 166.78 29.2226 167.688 29.9311C168.088 30.2226 168.088 30.4244 168.488 30.7159C169.749 29.8729 170.665 28.5987 171.068 27.1283C171.268 25.3121 169.066 24.1237 168.088 23.9219L166.398 26.0072C166.087 26.4108 165.909 26.7247 165.597 27.1283C165.329 27.517 165.032 27.8843 164.708 28.227Z" fill="#FAC67E"/>
<path fill-rule="evenodd" clip-rule="evenodd" d="M175.826 51.7483C176.564 51.9625 177.262 52.2957 177.894 52.7349C178.183 52.9648 178.488 53.1745 178.806 53.3627C179.037 53.6584 179.297 53.9289 179.584 54.1699C180.852 53.3245 181.77 52.0404 182.163 50.5599C182.364 48.9679 180.473 47.6674 179.184 47.3535C178.875 47.6897 178.613 48.0669 178.406 48.4746L175.826 51.7483Z" fill="#FAC67E"/>
<path fill-rule="evenodd" clip-rule="evenodd" d="M237.487 21.971C238.593 22.3102 239.611 22.8922 240.467 23.6751C241.737 22.9987 242.776 21.9515 243.447 20.6705C244.247 18.6749 242.268 18.0695 240.978 17.5762C240.578 17.8677 239.578 19.2803 239.177 19.6839C238.915 20.0768 238.617 20.4446 238.288 20.7826C238.05 21.1976 237.782 21.5947 237.487 21.971Z" fill="#FAC67E"/>
<path fill-rule="evenodd" clip-rule="evenodd" d="M172.245 44.3932C172.046 44.3932 172.245 44.3932 172.245 44.1914C172.134 44.3932 172.134 44.1914 172.046 44.3932C172.245 44.5277 172.134 44.3932 172.245 44.3932Z" fill="#FAC67E"/>
<path fill-rule="evenodd" clip-rule="evenodd" d="M177.805 13.4061C177.183 13.72 177.072 14.9308 175.893 14.886C173.936 14.886 174.514 13.3613 174.292 13.1146C173.692 12.6886 173.247 14.1909 173.091 14.6842C172.802 15.5362 172.491 16.3434 173.091 17.0834C173.376 17.3577 173.72 17.5614 174.096 17.6783C174.473 17.7952 174.871 17.8221 175.259 17.7568C175.648 17.6915 176.016 17.5359 176.334 17.3022C176.653 17.0686 176.913 16.7633 177.094 16.4107C177.3 16.643 177.559 16.8202 177.85 16.9264C178.224 17.0056 178.61 17.0056 178.984 16.9264C179.605 16.7725 180.168 16.4408 180.606 15.9713C181.044 15.5018 181.338 14.9147 181.452 14.2806C181.786 12.7783 180.852 11.702 180.607 12.554C180.54 12.7591 180.488 12.9689 180.451 13.1819C180.451 13.6752 180.251 13.9442 179.873 14.1236C179.591 14.2598 179.274 14.307 178.965 14.259C178.655 14.211 178.368 14.0701 178.139 13.8545L178.005 13.6079C178.005 13.6079 177.872 13.4958 177.805 13.4061Z" fill="#FAC67E"/>
<path fill-rule="evenodd" clip-rule="evenodd" d="M221.788 32.9357C222.5 32.9357 223.767 31.5903 224.012 31.2316C224.571 30.4711 224.965 29.6001 225.168 28.6754C225.449 27.7242 225.379 26.7025 224.97 25.7996C224.561 24.8967 223.841 24.1738 222.944 23.7649C222.789 23.7649 222.767 23.7649 222.744 23.5183C222.722 23.2717 230.06 19.0338 230.527 18.8544C230.994 18.6751 231.772 18.0697 232.395 17.6436C233.555 16.8459 234.514 15.7864 235.197 14.5493C235.379 14.2496 235.535 13.9345 235.664 13.6076C235.797 13.2713 236.019 12.8901 235.664 12.5762C235.419 12.5762 233.062 14.4821 232.639 14.8184C231.617 15.6032 230.527 16.2983 229.437 17.0606C228.348 17.823 225.68 19.5495 224.701 20.3343C223.679 21.0698 222.699 21.8633 221.766 22.7111C221.231 23.427 220.741 24.1758 220.298 24.9533C220.134 25.2137 220 25.492 219.898 25.7829C219.476 27.2404 221.343 26.3435 222.678 27.7337C223.168 28.3158 223.436 29.0553 223.434 29.819C223.399 30.2864 223.271 30.742 223.057 31.1581C222.843 31.5743 222.547 31.9425 222.188 32.2406C222.011 32.3976 221.721 32.6218 221.721 32.8684C221.721 33.1151 221.721 32.8236 221.788 32.9357Z" fill="#FAC67E"/>
<path fill-rule="evenodd" clip-rule="evenodd" d="M15.6577 25.7152V25.8722H15.9023C16.5755 25.7692 17.2639 25.8723 17.8783 26.1681C18.4928 26.4639 19.0051 26.9388 19.3489 27.5314C18.4957 28.1201 17.6991 28.7882 16.9697 29.527C16.2336 30.2845 15.543 31.0857 14.9017 31.9262C13.9233 33.563 12.2778 36.1416 13.1005 38.6529C14.0789 41.8818 18.3483 40.4691 17.5478 42.8683C16.9374 44.0429 16.0706 45.0626 15.0129 45.8505C9.80957 49.7744 2.69396 49.3708 2.93856 41.7472C3.36401 38.2561 4.59801 34.9148 6.54084 31.9935C6.94109 31.1638 7.85278 29.7512 7.51924 28.675C6.12635 30.8345 4.87117 33.0813 3.7613 35.4017C2.5095 37.8973 1.62555 40.5637 1.13742 43.3168C0.38139 47.8012 1.44873 53.1602 6.29624 53.6759C7.83876 53.8758 9.4034 53.5524 10.7435 52.7566C12.9938 51.6444 14.9176 49.9596 16.3248 47.8685C17.894 45.6718 18.9852 43.1656 19.5268 40.514C20.3496 35.4689 18.0592 36.2089 16.814 35.6259C16.2303 35.3625 15.7633 34.8916 15.5021 34.303C15.1908 32.9128 16.5694 31.8365 17.57 31.0741C18.0582 30.6722 18.5789 30.3122 19.1266 29.9979C19.7047 29.684 20.2606 29.3476 20.8388 29.101C21.4634 29.4673 22.1731 29.6602 22.8956 29.6602C23.6182 29.6602 24.3279 29.4673 24.9525 29.101L25.5973 28.4283C25.8562 28.2532 26.0821 28.033 26.2644 27.7781C26.8426 27.2848 27.2428 26.7018 28.0656 26.8587C28.8883 27.0157 29.2218 27.5987 30.1113 27.352C31.6011 27.0381 32.7352 24.7062 33.4023 23.3833L33.6469 22.89C33.9804 23.316 34.225 24.3923 35.2924 25.1322C36.2445 25.6634 37.3631 25.8037 38.4153 25.5239C39.4675 25.244 40.372 24.5656 40.9404 23.6299C41.9188 22.307 42.8972 20.2441 44.6316 20.7374C47.589 21.4774 49.2123 16.0287 49.0788 14.0107C48.2561 14.1677 48.1672 16.4099 47.2777 16.8135C46.3883 17.2171 45.3876 15.9839 43.5865 17.6431C42.7637 18.4728 42.5859 19.2127 41.2072 19.8854C40.685 20.2245 40.0917 20.4365 39.4743 20.5045C38.8568 20.5725 38.2321 20.4946 37.6496 20.2771C37.0672 20.0596 36.5429 19.7083 36.1183 19.2512C35.6938 18.794 35.3805 18.2435 35.2034 17.6431C34.3807 15.4009 35.2034 9.61593 35.448 6.97009C35.448 6.63375 35.448 6.23015 35.6259 5.89382C35.6674 5.70175 35.6674 5.5029 35.6259 5.31083C35.6259 4.99692 35.6259 4.99692 35.3813 4.90723C35.0478 6.07319 34.7142 7.14946 34.314 8.22574C33.8523 9.30994 33.5237 10.447 33.3356 11.6115C32.9131 14.078 33.091 16.096 32.8464 17.8001C32.8464 18.4728 32.8464 19.2127 32.8464 20.0423C32.9107 21.2605 32.5573 22.464 31.8457 23.4506C30.6227 24.7735 29.3108 23.4505 28.4881 23.6972C26.7759 24.5268 25.8642 27.7332 23.4849 27.4866C23.9567 27.0502 24.321 26.5088 24.5487 25.9054C24.7765 25.302 24.8614 24.6534 24.7968 24.0111C23.9296 20.0872 15.969 22.15 15.6577 25.7152Z" fill="#FAC67E"/>
<path fill-rule="evenodd" clip-rule="evenodd" d="M132.109 24.2135L129.063 26.9042C128.095 28.0409 127.498 29.4498 127.351 30.9402C126.933 31.0685 126.561 31.318 126.283 31.6577C125.928 31.9268 125.661 32.2856 125.283 32.5546C124.975 32.9318 124.592 33.2403 124.16 33.4603C123.727 33.6803 123.254 33.8072 122.77 33.8327C117.211 34.3708 117.833 27.3975 118.189 23.5857L118.723 18.4285C118.778 18.1322 118.778 17.828 118.723 17.5316C118.723 17.0608 118.723 16.9711 118.456 16.7917C118.213 17.8379 117.916 18.8707 117.567 19.886C117.211 20.8726 116.677 21.8816 116.388 22.7785C116 25.2337 115.792 27.7143 115.766 30.2003C115.766 32.6443 116.121 37.4427 113.164 37.6445C112.363 37.6445 111.985 37.2633 111.452 37.2633C109.651 37.2633 109.473 39.7074 106.159 39.9989C105.619 40.0716 105.069 40.014 104.555 39.8308C104.041 39.6476 103.577 39.344 103.202 38.945C101.668 37.3082 101.668 35.1332 101.757 32.4201C101.935 28.6307 102.557 23.4511 103.002 19.5721C103.002 18.9218 103.291 18.1146 102.824 17.7559C102.646 18.0249 102.112 19.9981 101.935 20.469C101.685 21.3674 101.365 22.2445 100.978 23.0924C100.471 25.1727 100.166 27.2979 100.067 29.4379C99.7109 33.2497 98.7325 40.8509 100.778 44.0125C100.984 44.3998 101.264 44.7426 101.601 45.0215C101.922 45.3341 102.322 45.5513 102.757 45.6493C105.47 46.5462 107.071 44.3937 108.428 42.5774C108.636 42.176 108.96 41.8477 109.357 41.6355C109.754 41.4234 110.205 41.3375 110.651 41.3891C111.896 41.5684 112.363 41.9272 113.431 41.0303C114.752 39.8077 115.74 38.2636 116.299 36.5458C116.855 37.2633 117.3 38.7881 119.012 39.4383C119.766 39.718 120.593 39.718 121.347 39.4383C121.986 39.2029 122.586 38.8702 123.126 38.4517C123.547 37.9273 123.94 37.3809 124.304 36.8149C124.645 36.177 125.153 35.6454 125.772 35.2778C126.392 34.9102 127.099 34.7206 127.818 34.7296C128.597 34.8378 129.351 35.0886 130.041 35.4695C130.842 35.0884 132.91 32.4649 131.909 31.2093C131.553 30.8505 129.307 29.8415 129.307 28.2944C129.307 26.7472 138.202 23.3166 140.003 22.2403C140.195 22.0699 140.404 21.9196 140.626 21.7919C141.622 20.8657 142.385 19.7125 142.849 18.4285C141.871 18.4285 139.358 20.155 138.18 20.4241C137.001 20.6932 131.264 19.6169 133.866 16.0742C134.424 15.4632 135.14 15.0207 135.934 14.7961C138.157 14.4373 138.624 16.4329 139.625 15.9845C139.981 15.8051 140.07 15.267 140.07 14.7064C139.954 14.3136 139.754 13.9512 139.484 13.6447C139.214 13.3383 138.881 13.0953 138.508 12.9328C138.134 12.7703 137.731 12.6923 137.324 12.7043C136.918 12.7163 136.519 12.8181 136.156 13.0023C135.463 13.3904 134.827 13.8733 134.266 14.4373L133.466 15.3567C132.309 16.8814 128.529 20.6932 129.975 22.9579C130.33 23.6305 131.131 23.8996 132.109 24.2135Z" fill="#FAC67E"/>
<path fill-rule="evenodd" clip-rule="evenodd" d="M70.3141 43.3403C67.4456 43.3403 58.3287 43.3403 58.2398 38.8558C58.2398 38.4298 58.2398 38.2504 57.9952 37.9814C57.572 39.6157 57.3333 41.2931 57.2836 42.9816C57.1872 44.0328 57.4438 45.0862 58.0124 45.9727C58.581 46.8592 59.4286 47.5272 60.4189 47.8696C62.921 48.6111 65.5321 48.907 68.1349 48.7441C75.2505 48.7441 88.281 46.9055 93.9068 42.5331C94.9038 41.7249 95.671 40.6651 96.1304 39.4612C96.7826 38.0917 97.1605 36.6059 97.2422 35.0889C96.464 35.627 96.9976 36.5912 94.8185 38.1607L94.1291 38.5868C93.706 38.9268 93.2335 39.199 92.7283 39.394C86.8801 42.2864 76.896 43.3403 70.3141 43.3403Z" fill="#FAC67E"/>
<path fill-rule="evenodd" clip-rule="evenodd" d="M50.7462 39.7741C50.5683 40.2001 50.257 40.7607 50.0791 41.1867C48.6115 43.9895 45.8987 49.9539 48.278 52.5997C48.6866 53.0241 49.2265 53.2954 49.8087 53.3688C50.3908 53.4422 50.9803 53.3132 51.48 53.0033C52.3627 52.4712 53.0733 51.6923 53.5257 50.7611C54.7487 48.5188 54.4374 45.6264 51.8802 45.1331L50.9018 47.3753C48.4336 46.9717 50.9018 41.1867 51.6356 40.0208C52.3694 38.8548 52.8809 37.9579 53.3701 36.7919C53.8593 35.626 54.5931 33.4734 54.0149 32.5765C53.5257 32.8232 53.1255 35.1327 51.0575 34.2358C47.7888 32.8232 51.8135 23.3834 50.7462 21.9932C50.5016 22.3071 50.0791 23.63 49.8345 24.056C49.5532 24.7643 49.2263 25.4534 48.8561 26.1189C48.3906 27.775 48.034 29.4604 47.7888 31.1639C47.2106 34.0788 46.6325 39.6172 50.7462 39.7741Z" fill="#FAC67E"/>
<path fill-rule="evenodd" clip-rule="evenodd" d="M129.019 44.3931V42.9356C128.863 42.4423 128.863 39.5274 126.795 39.3705C124.727 39.2135 124.572 40.9176 123.816 42.1957C122.926 44.1464 121.903 45.0209 122.77 46.4111C123.278 47.0174 123.978 47.4286 124.752 47.5757C125.525 47.7227 126.325 47.5965 127.018 47.2183C126.862 48.9897 122.57 51.4113 121.414 52.2185C120.769 52.7118 119.88 53.2051 119.724 54.0795C120.458 53.8329 121.57 53.1154 123.015 52.6221C124.95 51.9943 125.016 52.8015 126.373 51.2543C127.447 49.8174 128.205 48.1664 128.596 46.4111C128.657 45.7239 128.799 45.0465 129.019 44.3931Z" fill="#FAC67E"/>
<path fill-rule="evenodd" clip-rule="evenodd" d="M108.116 52.4659C108.872 52.3187 109.572 51.9615 110.138 51.4347C110.704 50.9078 111.112 50.2321 111.318 49.4837C111.829 47.7347 109.85 46.5912 108.538 46.2549C108.027 46.8603 107.582 47.4657 106.982 48.1832C106.715 48.5195 106.448 48.8783 106.204 49.1474C105.981 49.4975 105.72 49.821 105.425 50.1115C105.116 49.5268 104.623 49.0617 104.024 48.7886C103.484 48.4263 102.902 48.1326 102.29 47.9141C101.934 48.3626 98.999 51.9502 98.8211 52.3986C99.3897 52.615 99.94 52.8774 100.467 53.1834C100.992 53.4076 101.469 53.7354 101.867 54.1476C102.801 54.1476 103.691 53.3628 104.202 53.004C104.766 52.4062 105.185 51.6848 105.425 50.8963C106.432 51.1986 107.354 51.7363 108.116 52.4659Z" fill="#FAC67E"/>
<path fill-rule="evenodd" clip-rule="evenodd" d="M47.1442 6.00586L44.1867 9.72798C43.5265 8.62219 42.4661 7.81824 41.2293 7.48574L38.7166 10.7594C38.3881 11.0725 38.1105 11.4357 37.8939 11.8357C38.2941 12.0823 38.9612 12.2617 39.4504 12.5756L40.8513 13.4949C41.6285 13.3472 42.3482 12.9801 42.9268 12.4363C43.5054 11.8926 43.9192 11.1945 44.12 10.4231C45.0725 10.711 45.9421 11.2263 46.655 11.9254C47.322 12.172 49.2121 10.8491 49.7013 9.18983C49.8254 8.63183 49.7334 8.04712 49.444 7.55529C49.1547 7.06347 48.6899 6.7017 48.1448 6.54399C47.8014 6.38383 47.4673 6.20417 47.1442 6.00586Z" fill="#FAC67E"/>
<path fill-rule="evenodd" clip-rule="evenodd" d="M27.3767 46.2769C26.6913 45.2308 25.6318 44.4918 24.4192 44.2141L21.9732 47.3532C21.7954 47.5326 21.7286 47.6896 21.5508 47.869L21.2395 48.2726C21.2395 48.4295 21.2395 48.2726 21.2395 48.4295L22.796 49.1022C23.2941 49.3396 23.7402 49.6751 24.1079 50.0888C24.5325 50.0756 24.9497 49.973 25.3326 49.7877C25.7155 49.6023 26.0558 49.3383 26.3316 49.0125C26.9245 48.4748 27.3754 47.7967 27.6435 47.0393C28.563 47.3461 29.4053 47.8511 30.1117 48.5192C30.8239 48.3805 31.4837 48.0449 32.0177 47.55C32.5518 47.0551 32.9389 46.4203 33.1359 45.7164C33.6251 44.0571 31.735 42.9809 30.512 42.6445L28.2884 45.3801C28.2884 45.537 28.0438 45.7164 27.977 45.8734L27.3767 46.2769Z" fill="#FAC67E"/>
<path fill-rule="evenodd" clip-rule="evenodd" d="M77.4529 33.4737C76.735 32.3453 75.6111 31.5415 74.3176 31.2314L73.4504 32.2629C73.2027 32.6742 72.912 33.0576 72.5832 33.4064L70.8487 35.6486C71.7025 35.9513 72.5164 36.3579 73.2725 36.8595C73.4713 37.0853 73.7133 37.2684 73.984 37.3976C74.8073 37.2402 75.5696 36.8515 76.1833 36.2763C76.7971 35.7011 77.2371 34.9628 77.4529 34.1463C78.4619 34.4551 79.384 35.0007 80.1435 35.7383C81.3442 36.1644 86.6365 31.5229 80.566 29.5273C79.7877 30.4018 79.0094 31.6126 78.3423 32.4871C78.0629 32.8312 77.766 33.1605 77.4529 33.4737Z" fill="#FAC67E"/>
<path fill-rule="evenodd" clip-rule="evenodd" d="M33.5139 34.2585C34.8674 34.7217 36.099 35.4883 37.1162 36.5008C38.4281 35.6712 40.8074 32.8683 38.606 31.1194C38.0277 30.6983 37.3908 30.3658 36.7159 30.1328L34.27 33.1823C34.0921 33.5859 33.7585 33.8325 33.5139 34.2585Z" fill="#FAC67E"/>
<path fill-rule="evenodd" clip-rule="evenodd" d="M14.5903 17.8681C15.2641 18.1169 15.9182 18.4167 16.5471 18.765L17.3698 19.4377C17.7034 19.6844 17.7701 19.931 18.1036 20.1776C18.6818 19.931 21.3056 17.4421 20.3272 15.6932C20.0415 15.2211 19.6601 14.8152 19.2079 14.5022C18.7557 14.1892 18.243 13.9761 17.7034 13.877L16.9696 14.8635L15.3241 16.9264C15.1462 17.1058 14.7459 17.6215 14.5903 17.8681Z" fill="#FAC67E"/>
<path fill-rule="evenodd" clip-rule="evenodd" d="M115.655 11.0514C106.404 13.1815 96.3536 14.5717 87.1033 15.9619C81.7666 16.6122 62.3766 18.5405 58.9299 15.9619C58.8623 15.5918 58.9197 15.2094 59.0931 14.8761C59.2664 14.5427 59.5457 14.2776 59.8861 14.1233C64.5557 11.1411 66.4236 11.9931 68.9807 8.22619C69.9683 7.02221 70.6206 5.57511 70.8708 4.0332C69.8924 4.45923 68.6472 6.38755 67.402 7.35172C66.0905 8.33833 64.7163 9.23715 63.2882 10.0424C60.9534 11.4774 57.2622 14.1457 56.0615 17.4866C54.8607 20.8276 57.4846 22.2178 63.0436 22.1056C67.7133 22.1056 74.1618 21.4554 80.8327 20.7155C92.7456 19.2242 104.533 16.8484 116.099 13.6076C123.704 11.3653 121.214 9.86303 115.655 11.0514Z" fill="#FAC67E"/>
</svg>
