<svg width="40" height="58" viewBox="0 0 40 58" fill="none" xmlns="http://www.w3.org/2000/svg">
<g clip-path="url(#clip0_135_1764)">
<path fill-rule="evenodd" clip-rule="evenodd" d="M32.9551 16.9848C30.861 19.1759 27.3822 22.1748 30.1518 25.2511C32.5144 27.8759 35.5211 29.9895 35.0938 33.38C35.0679 33.6949 34.9786 34.0014 34.831 34.2816C34.6835 34.5617 34.4808 34.8098 34.2348 35.0112C34.2348 35.0112 32.7313 35.1793 32.134 33.94C32.134 33.94 32.2504 33.276 31.8723 33.276C31.8723 33.276 28.6484 37.0694 26.6573 36.3258C24.5543 35.4958 26.5924 32.2867 27.2256 30.722C27.2256 30.722 28.2703 28.0662 26.5924 27.2075C24.6572 26.2094 21.8943 29.2192 20.9055 30.4631C19.3672 32.3416 17.5955 34.0206 15.6323 35.4604L17.1514 37.1314C17.7756 36.6312 18.9859 35.2612 19.9479 34.044C20.6661 33.1366 21.7377 30.7707 23.0598 31.5564C23.8183 32.0101 23.9391 33.1432 23.7691 33.9267C23.4111 35.56 19.6258 40.4489 23.9481 40.8252C24.8743 40.907 26.2725 40.6658 27.89 39.1763C27.89 39.1763 28.5388 38.5633 29.1272 38.6363C30.2145 40.8207 35.7449 37.5961 38.0984 33.4708C42.8122 25.2046 30.9998 21.9335 33.2571 17.8059C33.5927 17.1929 33.351 16.6595 33.3018 16.6484C33.1733 16.7468 33.0569 16.8597 32.9551 16.9848Z" fill="white"/>
<path fill-rule="evenodd" clip-rule="evenodd" d="M16.0241 47.9076C15.731 48.3923 15.3686 50.1739 16.8407 48.5275C16.8407 48.5275 19.154 45.9645 20.1317 43.1228C20.1317 43.1228 20.9908 40.4382 17.6707 37.322C17.6707 37.322 14.2746 34.4648 14.2455 32.2428C14.2455 32.2428 13.3395 28.8965 16.1986 24.5963C16.1986 24.5963 19.0869 19.548 15.08 19.7273L4.69042 20.0859C3.37719 20.1324 3.20045 19.9663 2.2899 21.126L0.247303 23.8527C0.247303 23.8527 -0.672186 24.9349 1.0348 24.7047C8.73305 23.5605 12.892 26.898 8.33262 33.7788C5.79786 37.6076 2.31677 41.2305 2.02593 46.9958C1.71943 53.5205 6.19381 56.0676 11.8204 57.2141C23.6373 59.6487 37.7452 54.18 39.4634 41.1021C39.6602 39.6171 39.6155 39.2409 38.8638 40.8344C36.1791 46.5244 32.4788 51.4685 23.2235 52.241C23.2235 52.241 11.76 54.1442 6.89186 48.1135C4.17589 44.4396 7.214 36.5519 10.4915 34.0444C10.5452 34.0266 10.6391 35.3324 10.9949 36.8329C12.2097 41.9764 18.0734 41.9963 16.0286 47.8987" fill="white"/>
<path fill-rule="evenodd" clip-rule="evenodd" d="M3.42871 27.9046C5.67936 26.9176 8.3506 28.8165 6.65702 31.3152C6.13993 32.1234 5.47717 32.8308 4.70172 33.4022C4.478 33.5549 3.23411 34.4092 3.80684 33.3645C5.10888 30.9522 3.30792 30.4874 1.26982 30.6423C-1.63855 30.8482 2.73742 28.2079 3.43767 27.9046" fill="white"/>
<path fill-rule="evenodd" clip-rule="evenodd" d="M28.4465 18.001C28.2787 19.4816 27.6165 22.8434 25.4532 21.708C25.3279 22.5225 23.7909 24.0695 21.8065 23.3214C20.8557 23.4034 19.878 24.2797 19.0122 25.2027C18.4574 25.7958 18.5961 25.7029 18.1688 26.1388C17.7213 26.6788 16.5759 27.1547 17.8332 25.7737C18.039 25.5523 18.133 25.3952 18.5693 24.8353C18.7527 24.6007 19.4641 23.6977 19.9518 22.9541C20.4395 22.2105 21.2472 19.88 22.4128 20.4443C23.2383 20.8449 22.4463 21.9736 23.4889 21.8408C24.5314 21.708 24.3837 20.0703 25.3726 20.3448C26.3614 20.6192 26.3816 21.292 26.5986 20.8449C26.8156 20.3978 26.4487 18.6981 28.0796 18.1493L28.4018 18.0098L28.4465 18.001Z" fill="white"/>
<path fill-rule="evenodd" clip-rule="evenodd" d="M22.1259 10.4514C22.4705 10.7945 24.428 12.7332 25.258 13.0032C25.258 13.0032 25.9292 13.3618 26.3454 13.2068C26.3454 13.2068 27.0836 13.0984 26.5512 13.7203C26.007 14.3292 25.432 14.9106 24.8285 15.462C23.522 16.6196 22.4571 17.0113 21.0677 15.8538L19.1549 14.2581C19.1549 14.2581 18.6784 13.7977 18.3875 14.132C18.1952 14.3533 17.1549 15.2385 16.4882 15.8073C15.43 16.6926 14.0585 17.2547 12.7901 16.5576C12.5238 16.4115 11.9153 15.8936 11.4321 15.5395C10.2419 14.6542 10.1681 13.8531 11.0674 12.9678C11.8751 12.1755 12.9735 11.1973 12.9735 11.1973C13.0266 11.146 13.0899 11.1064 13.1594 11.0809C13.2289 11.0553 13.3031 11.0445 13.3771 11.0491C13.4511 11.0537 13.5233 11.0736 13.589 11.1075C13.6548 11.1414 13.7126 11.1886 13.7588 11.246C14.4075 11.8664 15.1063 12.4334 15.8483 12.9413C16.7655 13.6052 17.4144 13.4481 17.9267 13.198C19.0162 12.669 20.2198 11.2681 21.1885 10.4935C21.4123 10.312 21.7545 10.1194 22.1349 10.4603" fill="white"/>
<path fill-rule="evenodd" clip-rule="evenodd" d="M14.7318 6.33739C14.3493 7.64095 14.1972 9.02859 14.5238 10.195C15.0495 12.0562 16.8169 13.1008 18.6425 12.1182C20.09 11.3369 20.8932 9.41591 19.0609 7.40192C17.7991 6.01649 17.6268 3.35403 18.4076 1.7185C18.4076 1.7185 19.0117 0.0431233 17.7364 1.16299C16.4613 2.28286 15.1794 4.76383 14.7207 6.33739" fill="white"/>
</g>
<defs>
<clipPath id="clip0_135_1764">
<rect width="40" height="57" fill="white" transform="translate(0 0.777344)"/>
</clipPath>
</defs>
</svg>
