<svg width="20" height="20" viewBox="0 0 20 20" fill="none" xmlns="http://www.w3.org/2000/svg">
<g clip-path="url(#clip0_157_1817)">
<path d="M18.3334 14.1024V16.6024C18.3344 16.8344 18.2868 17.0642 18.1939 17.2768C18.1009 17.4895 17.9645 17.6803 17.7935 17.8372C17.6225 17.9941 17.4206 18.1136 17.2007 18.1879C16.9809 18.2623 16.7479 18.2899 16.5168 18.269C13.9525 17.9904 11.4893 17.1141 9.32511 15.7107C7.31163 14.4312 5.60455 12.7242 4.32511 10.7107C2.91676 8.5367 2.04031 6.06152 1.76677 3.48569C1.74595 3.25525 1.77334 3.02299 1.84719 2.80371C1.92105 2.58443 2.03975 2.38293 2.19575 2.21204C2.35174 2.04115 2.54161 1.90462 2.75327 1.81113C2.96492 1.71764 3.19372 1.66924 3.42511 1.66903H5.92511C6.32953 1.66505 6.7216 1.80826 7.02824 2.07197C7.33488 2.33568 7.53517 2.7019 7.59177 3.10236C7.69729 3.90241 7.89298 4.68797 8.17511 5.44403C8.28723 5.7423 8.31149 6.06645 8.24503 6.37809C8.17857 6.68973 8.02416 6.97579 7.80011 7.20236L6.74177 8.26069C7.92807 10.347 9.65549 12.0744 11.7418 13.2607L12.8001 12.2024C13.0267 11.9783 13.3127 11.8239 13.6244 11.7574C13.936 11.691 14.2602 11.7152 14.5584 11.8274C15.3145 12.1095 16.1001 12.3052 16.9001 12.4107C17.3049 12.4678 17.6746 12.6717 17.9389 12.9836C18.2032 13.2955 18.3436 13.6937 18.3334 14.1024Z" stroke="#FFC570" stroke-width="1.5" stroke-linecap="round" stroke-linejoin="round"/>
</g>
<defs>
<clipPath id="clip0_157_1817">
<rect width="20" height="20" fill="white" transform="translate(0 0.00195312)"/>
</clipPath>
</defs>
</svg>
