<svg width="15" height="12" viewBox="0 0 15 12" fill="none" xmlns="http://www.w3.org/2000/svg">
<path d="M0.394083 5.46915C0.428531 5.4525 0.462994 5.43668 0.49658 5.4217C1.08046 5.16029 1.67209 4.91554 2.26286 4.67079C2.29473 4.67079 2.34811 4.63499 2.37825 4.62333C2.42389 4.60419 2.46954 4.58587 2.51518 4.56672C2.60302 4.53009 2.69087 4.4943 2.77785 4.45767C2.95353 4.38524 3.12833 4.31281 3.30402 4.24038L4.35551 3.80499C5.05651 3.51528 5.75839 3.22474 6.45939 2.93503C7.16039 2.64532 7.86225 2.35477 8.56325 2.06507C9.26425 1.77536 9.96611 1.48482 10.6671 1.19511C11.3681 0.905401 12.07 0.614858 12.771 0.325149C12.9269 0.260214 13.0956 0.163642 13.2627 0.135337C13.4031 0.111195 13.54 0.0645771 13.6812 0.0387697C13.9491 -0.0103477 14.2445 -0.0303258 14.5011 0.0770664C14.5898 0.114529 14.6716 0.166976 14.7396 0.232743C15.0652 0.544097 15.0195 1.05525 14.9506 1.49314C14.4709 4.54508 13.9913 7.59785 13.5107 10.6498C13.4453 11.0685 13.3557 11.5281 13.0138 11.7928C12.7245 12.0167 12.3128 12.0417 11.9554 11.9468C11.598 11.8511 11.2829 11.6504 10.9737 11.4531C9.6914 10.6323 8.40824 9.81145 7.12595 8.99061C6.82109 8.79581 6.48179 8.54107 6.48523 8.18725C6.48695 7.97414 6.6187 7.78433 6.75305 7.61533C7.86741 6.21007 9.47524 5.24438 10.6714 3.90405C10.8402 3.71508 10.9728 3.37375 10.7412 3.2647C10.6034 3.19976 10.4449 3.28801 10.3192 3.37209C8.73806 4.43352 7.15781 5.49579 5.57668 6.55722C5.06084 6.90354 4.52001 7.25985 3.89824 7.34477C3.34192 7.42136 2.78216 7.27151 2.24392 7.11833C1.79266 6.99012 1.34225 6.85859 0.893572 6.72289C0.655025 6.65129 0.408726 6.57387 0.224433 6.41154C0.0401408 6.2492 -0.0657701 5.97614 0.0453222 5.75969C0.115078 5.62399 0.250286 5.53824 0.39238 5.46832L0.394083 5.46915Z" fill="#FEFFFC"/>
</svg>
