<svg width="234" height="84" viewBox="0 0 234 84" fill="none" xmlns="http://www.w3.org/2000/svg">
<path d="M0.550293 83.7764C9.90599 83.7764 21.0076 76.0199 22.3707 74.4686C31.4617 64.0966 40.356 58.862 57.554 59.3346C58.8169 50.9143 64.5055 37.6706 73.6537 32.353C78.0435 29.8024 82.9557 28.5469 87.8715 27.2914C99.567 24.3043 111.302 21.3064 116.192 0.811317C116.271 0.540741 116.507 -0.000427246 116.822 -0.000427246L116.822 83.7764L0.550293 83.7764Z" fill="#242525"/>
<path d="M116.822 83.7764L116.822 -0.000427246C117.141 -0.000427246 117.377 0.540741 117.455 0.811317C122.346 21.3064 134.081 24.3043 145.777 27.2914C150.696 28.5469 155.605 29.8024 159.994 32.353C169.143 37.6706 174.831 50.9143 176.094 59.3346C193.292 58.862 202.186 64.0966 211.281 74.4686C212.64 76.0199 223.745 83.7764 233.101 83.7764L116.822 83.7764Z" fill="#242525"/>
</svg>
